G04 Layer_Color=16711935*
%FSAX24Y24*%
%MOIN*%
G70*
G01*
G75*
%ADD71R,0.3600X0.4000*%
%ADD88R,0.0375X0.0414*%
%ADD94R,0.1160X0.1560*%
%ADD104C,0.1084*%
%ADD105C,0.1635*%
%ADD106C,0.0651*%
%ADD107R,0.0651X0.0651*%
%ADD108C,0.0434*%
%ADD109C,0.0611*%
%ADD110C,0.0532*%
%ADD111C,0.0651*%
%ADD112R,0.0808X0.0434*%
%ADD113R,0.2973X0.2225*%
%ADD114R,0.0296X0.0572*%
%ADD115R,0.0611X0.0532*%
D71*
X003300Y009050D02*
D03*
D88*
X015276Y004850D02*
D03*
X014724D02*
D03*
X006976Y019500D02*
D03*
X006424D02*
D03*
X005526D02*
D03*
X004974D02*
D03*
X004075D02*
D03*
X003524D02*
D03*
D94*
X008350Y003600D02*
D03*
X011350D02*
D03*
D104*
X006291Y006115D02*
D03*
Y003950D02*
D03*
X004637Y006115D02*
D03*
Y003950D02*
D03*
X002984D02*
D03*
Y006115D02*
D03*
X016941D02*
D03*
Y003950D02*
D03*
X015287Y006115D02*
D03*
Y003950D02*
D03*
X013634D02*
D03*
Y006115D02*
D03*
D105*
X006291Y001076D02*
D03*
X002984D02*
D03*
X016941D02*
D03*
X013634D02*
D03*
D106*
X009053Y002042D02*
D03*
X010037Y001058D02*
D03*
X011022Y002042D02*
D03*
X002756Y022100D02*
D03*
X003756Y023100D02*
D03*
Y022100D02*
D03*
X004756Y023100D02*
D03*
Y022100D02*
D03*
X005756Y023100D02*
D03*
Y022100D02*
D03*
X006756Y023100D02*
D03*
Y022100D02*
D03*
X007756Y023100D02*
D03*
Y022100D02*
D03*
X002756Y030996D02*
D03*
X003756Y031996D02*
D03*
Y030996D02*
D03*
X004756Y031996D02*
D03*
Y030996D02*
D03*
X005756Y031996D02*
D03*
Y030996D02*
D03*
X006756Y031996D02*
D03*
Y030996D02*
D03*
X007756Y031996D02*
D03*
Y030996D02*
D03*
D107*
X002756Y023100D02*
D03*
Y031996D02*
D03*
D108*
X011737Y025250D02*
D03*
Y024750D02*
D03*
X012237Y025250D02*
D03*
Y024750D02*
D03*
X012737Y025250D02*
D03*
Y024750D02*
D03*
D109*
X012539Y034496D02*
D03*
X011539D02*
D03*
X010539D02*
D03*
X009539D02*
D03*
X008539D02*
D03*
X007539D02*
D03*
Y028496D02*
D03*
X008539D02*
D03*
X009539D02*
D03*
X010539D02*
D03*
X011539D02*
D03*
D110*
X012539D02*
D03*
D111*
X018400Y024900D02*
D03*
X018050Y007900D02*
D03*
D112*
X008116Y005452D02*
D03*
Y007248D02*
D03*
D113*
X010576Y006350D02*
D03*
D114*
X003750Y021113D02*
D03*
X003376Y020087D02*
D03*
X004124D02*
D03*
X005200Y021113D02*
D03*
X004826Y020087D02*
D03*
X005574D02*
D03*
X006650Y021113D02*
D03*
X006276Y020087D02*
D03*
X007024D02*
D03*
D115*
X003837Y005404D02*
D03*
Y004696D02*
D03*
X001987Y005504D02*
D03*
Y004796D02*
D03*
M02*
