G04 Layer_Color=65535*
%FSAX24Y24*%
%MOIN*%
G70*
G01*
G75*
%ADD74C,0.0236*%
%ADD75C,0.0098*%
%ADD76C,0.0157*%
%ADD77C,0.0079*%
%ADD78C,0.0070*%
%ADD79C,0.0050*%
%ADD80C,0.0039*%
D74*
X002951Y018731D02*
G03*
X002951Y018731I-000118J000000D01*
G01*
X011411Y023715D02*
G03*
X011411Y023715I-000118J000000D01*
G01*
X012528Y011255D02*
G03*
X012528Y011255I-000118J000000D01*
G01*
X009846Y011936D02*
G03*
X009846Y011936I-000118J000000D01*
G01*
D75*
X002587Y017924D02*
G03*
X002587Y017924I-000049J000000D01*
G01*
X010387Y024144D02*
G03*
X010387Y024144I-000049J000000D01*
G01*
X012042Y010291D02*
G03*
X012042Y010291I-000049J000000D01*
G01*
X005199Y017250D02*
G03*
X005199Y017250I-000049J000000D01*
G01*
X007499Y008350D02*
G03*
X007499Y008350I-000049J000000D01*
G01*
X010199Y013200D02*
G03*
X010199Y013200I-000049J000000D01*
G01*
D76*
X005146Y015639D02*
G03*
X005146Y015639I-000079J000000D01*
G01*
D77*
X007636Y018337D02*
Y020463D01*
X002439Y018337D02*
Y020463D01*
X007636D01*
X002439Y018337D02*
X007636D01*
X001296Y021681D02*
Y023019D01*
X002004Y021681D02*
Y023019D01*
X001296D02*
X001315D01*
Y021681D02*
Y022193D01*
X001985Y023019D02*
X002004D01*
X001985Y021681D02*
Y022193D01*
X010899Y018991D02*
X013576D01*
X010899Y024109D02*
X013576D01*
Y018991D02*
Y024109D01*
X010899Y018991D02*
Y024109D01*
X018158Y010861D02*
Y013539D01*
X012017Y010861D02*
Y013539D01*
X018158D01*
X012017Y010861D02*
X018158D01*
X007864Y005977D02*
Y008698D01*
Y005977D02*
X008996D01*
X010079D02*
X011211D01*
Y008698D01*
X008489Y009323D02*
X008996D01*
X007864Y008698D02*
X008489Y009323D01*
X010586D02*
X011211Y008698D01*
X010079Y009323D02*
X010586D01*
X013443Y008455D02*
X013757D01*
X013443Y009045D02*
X013757D01*
X005968Y011396D02*
X007307D01*
X005968Y012104D02*
X007307D01*
X005968Y011396D02*
Y011415D01*
X006795D02*
X007307D01*
X005968Y012085D02*
Y012104D01*
X006795Y012085D02*
X007307D01*
X002100Y013064D02*
Y013536D01*
X003550Y013064D02*
Y013536D01*
X006381Y016154D02*
X007719D01*
X006381Y015446D02*
X007719D01*
Y016135D02*
Y016154D01*
X006381Y016135D02*
X006893D01*
X007719Y015446D02*
Y015465D01*
X006381D02*
X006893D01*
X008515Y022807D02*
Y023319D01*
X008496Y021981D02*
X008515D01*
X009185Y022807D02*
Y023319D01*
Y021981D02*
X009204D01*
X008496D02*
Y023319D01*
X009204Y021981D02*
Y023319D01*
X001918Y015954D02*
X005382D01*
X001918Y015246D02*
X005382D01*
Y015954D01*
X001918Y015246D02*
Y015954D01*
X005861Y006903D02*
Y010997D01*
X005291D02*
X005861D01*
X005291Y006903D02*
X005861D01*
X008805Y018243D02*
Y018557D01*
X009395Y018243D02*
Y018557D01*
X008153Y012330D02*
X010122D01*
X008153Y011070D02*
X010122D01*
Y012330D01*
X008153Y011070D02*
Y012330D01*
D78*
X012400Y000172D02*
Y002928D01*
X007675Y000172D02*
X012400D01*
X007675D02*
Y002928D01*
X012400D01*
D79*
X008550Y005250D02*
Y005500D01*
X011350D01*
Y005250D02*
Y005500D01*
Y003100D02*
Y003350D01*
X008550Y003100D02*
X011350D01*
X008550D02*
Y003350D01*
X009300Y003100D02*
Y005500D01*
X013300Y024800D02*
X013400Y024700D01*
X013300Y024800D02*
X013400Y024900D01*
X013300Y024800D02*
X014600D01*
X002500Y021550D02*
Y021300D01*
X002550Y021250D01*
X002650D01*
X002700Y021300D01*
Y021550D01*
X003000Y021250D02*
X002800D01*
X003000Y021450D01*
Y021500D01*
X002950Y021550D01*
X002850D01*
X002800Y021500D01*
X015250Y019150D02*
Y019450D01*
X015450Y019150D01*
Y019450D01*
X015750D02*
X015550D01*
Y019150D01*
X015750D01*
X015550Y019300D02*
X015650D01*
X015850Y019150D02*
Y019450D01*
X016000D01*
X016050Y019400D01*
Y019300D01*
X016000Y019250D01*
X015850D01*
X015950D02*
X016050Y019150D01*
X016350Y019400D02*
X016300Y019450D01*
X016200D01*
X016150Y019400D01*
Y019350D01*
X016200Y019300D01*
X016300D01*
X016350Y019250D01*
Y019200D01*
X016300Y019150D01*
X016200D01*
X016150Y019200D01*
X016450Y019450D02*
X016650D01*
X016550D01*
Y019150D01*
X016750Y019100D02*
X016949D01*
X017049Y019150D02*
Y019450D01*
X017199D01*
X017249Y019400D01*
Y019300D01*
X017199Y019250D01*
X017049D01*
X017149D02*
X017249Y019150D01*
X001150Y023750D02*
X001100Y023800D01*
X001000D01*
X000950Y023750D01*
Y023550D01*
X001000Y023500D01*
X001100D01*
X001150Y023550D01*
X001250Y023500D02*
X001350D01*
X001300D01*
Y023800D01*
X001250Y023750D01*
X000850Y020200D02*
Y020500D01*
X001000D01*
X001050Y020450D01*
Y020350D01*
X001000Y020300D01*
X000850D01*
X000950D02*
X001050Y020200D01*
X001350D02*
X001150D01*
X001350Y020400D01*
Y020450D01*
X001300Y020500D01*
X001200D01*
X001150Y020450D01*
X001050Y020950D02*
X001000Y021000D01*
X000900D01*
X000850Y020950D01*
Y020750D01*
X000900Y020700D01*
X001000D01*
X001050Y020750D01*
X001350Y020700D02*
X001150D01*
X001350Y020900D01*
Y020950D01*
X001300Y021000D01*
X001200D01*
X001150Y020950D01*
X006850Y013100D02*
Y012900D01*
X006950Y012800D01*
X007050Y012900D01*
Y013100D01*
X007350Y013050D02*
X007300Y013100D01*
X007200D01*
X007150Y013050D01*
Y012850D01*
X007200Y012800D01*
X007300D01*
X007350Y012850D01*
X007650Y013050D02*
X007600Y013100D01*
X007500D01*
X007450Y013050D01*
Y012850D01*
X007500Y012800D01*
X007600D01*
X007650Y012850D01*
X012950Y007150D02*
Y006900D01*
X013000Y006850D01*
X013100D01*
X013150Y006900D01*
Y007150D01*
X013250Y006850D02*
Y007150D01*
X013450Y006850D01*
Y007150D01*
X014500Y007400D02*
X014600D01*
X014550D01*
Y007100D01*
X014500D01*
X014600D01*
X014750D02*
Y007400D01*
X014900D01*
X014950Y007350D01*
Y007250D01*
X014900Y007200D01*
X014750D01*
X014500Y007950D02*
X014600D01*
X014550D01*
Y007650D01*
X014500D01*
X014600D01*
X014750D02*
Y007850D01*
X014850Y007950D01*
X014950Y007850D01*
Y007650D01*
Y007800D01*
X014750D01*
X017150Y008050D02*
Y007850D01*
X017250Y007750D01*
X017350Y007850D01*
Y008050D01*
X017450Y007750D02*
Y008050D01*
X017550Y007950D01*
X017650Y008050D01*
Y007750D01*
X017900Y007300D02*
X017850Y007350D01*
X017750D01*
X017700Y007300D01*
Y007100D01*
X017750Y007050D01*
X017850D01*
X017900Y007100D01*
Y007200D01*
X017800D01*
X018000Y007050D02*
Y007350D01*
X018200Y007050D01*
Y007350D01*
X018300D02*
Y007050D01*
X018450D01*
X018500Y007100D01*
Y007300D01*
X018450Y007350D01*
X018300D01*
X018250Y024400D02*
X018200Y024450D01*
X018100D01*
X018050Y024400D01*
Y024200D01*
X018100Y024150D01*
X018200D01*
X018250Y024200D01*
Y024300D01*
X018150D01*
X018350Y024150D02*
Y024450D01*
X018550Y024150D01*
Y024450D01*
X018650D02*
Y024150D01*
X018800D01*
X018850Y024200D01*
Y024400D01*
X018800Y024450D01*
X018650D01*
X015450Y023500D02*
Y023200D01*
Y023350D01*
X015650D01*
Y023500D01*
Y023200D01*
X015750Y023500D02*
X015950D01*
X015850D01*
Y023200D01*
X016050D02*
Y023500D01*
X016200D01*
X016250Y023450D01*
Y023350D01*
X016200Y023300D01*
X016050D01*
X016150D02*
X016250Y023200D01*
X016350Y023150D02*
X016550D01*
X016650Y023200D02*
Y023500D01*
X016800D01*
X016850Y023450D01*
Y023350D01*
X016800Y023300D01*
X016650D01*
X016950Y023500D02*
Y023200D01*
X017049Y023300D01*
X017149Y023200D01*
Y023500D01*
X017249Y023200D02*
Y023500D01*
X017349Y023400D01*
X017449Y023500D01*
Y023200D01*
X015350Y021200D02*
Y021500D01*
X015500D01*
X015550Y021450D01*
Y021350D01*
X015500Y021300D01*
X015350D01*
X015650Y021500D02*
Y021250D01*
X015700Y021200D01*
X015800D01*
X015850Y021250D01*
Y021500D01*
X015950Y021200D02*
Y021500D01*
X016050Y021400D01*
X016150Y021500D01*
Y021200D01*
X016250D02*
Y021500D01*
X016400D01*
X016450Y021450D01*
Y021350D01*
X016400Y021300D01*
X016250D01*
X016550Y021150D02*
X016750D01*
X016850Y021500D02*
X016949D01*
X016899D01*
Y021200D01*
X016850D01*
X016949D01*
X010750Y024800D02*
Y024550D01*
X010800Y024500D01*
X010900D01*
X010950Y024550D01*
Y024800D01*
X011200Y024500D02*
Y024800D01*
X011050Y024650D01*
X011250D01*
X009300Y025550D02*
X009000D01*
Y025700D01*
X009050Y025750D01*
X009150D01*
X009200Y025700D01*
Y025550D01*
Y025650D02*
X009300Y025750D01*
X009000Y026050D02*
Y025850D01*
X009150D01*
X009100Y025950D01*
Y026000D01*
X009150Y026050D01*
X009250D01*
X009300Y026000D01*
Y025900D01*
X009250Y025850D01*
X016350Y021650D02*
Y021950D01*
X016500D01*
X016550Y021900D01*
Y021800D01*
X016500Y021750D01*
X016350D01*
X016450D02*
X016550Y021650D01*
X016650D02*
X016750D01*
X016700D01*
Y021950D01*
X016650Y021900D01*
X016900D02*
X016950Y021950D01*
X017050D01*
X017100Y021900D01*
Y021700D01*
X017050Y021650D01*
X016950D01*
X016900Y021700D01*
Y021900D01*
X015000Y022950D02*
X014950Y023000D01*
X014850D01*
X014800Y022950D01*
Y022750D01*
X014850Y022700D01*
X014950D01*
X015000Y022750D01*
X015100Y022700D02*
X015200D01*
X015150D01*
Y023000D01*
X015100Y022950D01*
X015350Y023000D02*
X015550D01*
Y022950D01*
X015350Y022750D01*
Y022700D01*
X013800Y017600D02*
X013500D01*
Y017750D01*
X013550Y017800D01*
X013650D01*
X013700Y017750D01*
Y017600D01*
Y017700D02*
X013800Y017800D01*
Y017900D02*
Y018000D01*
Y017950D01*
X013500D01*
X013550Y017900D01*
X013800Y018350D02*
Y018150D01*
X013600Y018350D01*
X013550D01*
X013500Y018300D01*
Y018200D01*
X013550Y018150D01*
X015250Y018800D02*
X015200Y018850D01*
X015100D01*
X015050Y018800D01*
Y018600D01*
X015100Y018550D01*
X015200D01*
X015250Y018600D01*
X015350Y018550D02*
X015450D01*
X015400D01*
Y018850D01*
X015350Y018800D01*
X015800Y018850D02*
X015700Y018800D01*
X015600Y018700D01*
Y018600D01*
X015650Y018550D01*
X015750D01*
X015800Y018600D01*
Y018650D01*
X015750Y018700D01*
X015600D01*
X011400Y014250D02*
Y014000D01*
X011450Y013950D01*
X011550D01*
X011600Y014000D01*
Y014250D01*
X011900D02*
X011700D01*
Y014100D01*
X011800Y014150D01*
X011850D01*
X011900Y014100D01*
Y014000D01*
X011850Y013950D01*
X011750D01*
X011700Y014000D01*
X011650Y014700D02*
Y015000D01*
X011800D01*
X011850Y014950D01*
Y014850D01*
X011800Y014800D01*
X011650D01*
X011750D02*
X011850Y014700D01*
X011950D02*
X012050D01*
X012000D01*
Y015000D01*
X011950Y014950D01*
X012350Y014700D02*
Y015000D01*
X012200Y014850D01*
X012400D01*
X011850Y015500D02*
X011800Y015550D01*
X011700D01*
X011650Y015500D01*
Y015300D01*
X011700Y015250D01*
X011800D01*
X011850Y015300D01*
X011950Y015250D02*
X012050D01*
X012000D01*
Y015550D01*
X011950Y015500D01*
X012200D02*
X012250Y015550D01*
X012350D01*
X012400Y015500D01*
Y015450D01*
X012350Y015400D01*
X012400Y015350D01*
Y015300D01*
X012350Y015250D01*
X012250D01*
X012200Y015300D01*
Y015350D01*
X012250Y015400D01*
X012200Y015450D01*
Y015500D01*
X012250Y015400D02*
X012350D01*
X014000Y015750D02*
Y016050D01*
X014150D01*
X014200Y016000D01*
Y015900D01*
X014150Y015850D01*
X014000D01*
X014100D02*
X014200Y015750D01*
X014300D02*
X014400D01*
X014350D01*
Y016050D01*
X014300Y016000D01*
X014550Y015750D02*
X014650D01*
X014600D01*
Y016050D01*
X014550Y016000D01*
X014000Y016200D02*
Y016500D01*
X014150D01*
X014200Y016450D01*
Y016350D01*
X014150Y016300D01*
X014000D01*
X014100D02*
X014200Y016200D01*
X014300Y016250D02*
X014350Y016200D01*
X014450D01*
X014500Y016250D01*
Y016450D01*
X014450Y016500D01*
X014350D01*
X014300Y016450D01*
Y016400D01*
X014350Y016350D01*
X014500D01*
X015200Y016650D02*
X015500D01*
Y016850D01*
Y017150D02*
Y016950D01*
X015300Y017150D01*
X015250D01*
X015200Y017100D01*
Y017000D01*
X015250Y016950D01*
X015700Y016850D02*
X015650Y016800D01*
Y016700D01*
X015700Y016650D01*
X015900D01*
X015950Y016700D01*
Y016800D01*
X015900Y016850D01*
X015950Y016950D02*
Y017050D01*
Y017000D01*
X015650D01*
X015700Y016950D01*
Y017200D02*
X015650Y017250D01*
Y017350D01*
X015700Y017400D01*
X015750D01*
X015800Y017350D01*
Y017300D01*
Y017350D01*
X015850Y017400D01*
X015900D01*
X015950Y017350D01*
Y017250D01*
X015900Y017200D01*
X018500Y009250D02*
X018450Y009200D01*
Y009100D01*
X018500Y009050D01*
X018700D01*
X018750Y009100D01*
Y009200D01*
X018700Y009250D01*
X018750Y009350D02*
Y009450D01*
Y009400D01*
X018450D01*
X018500Y009350D01*
X018750Y009800D02*
Y009600D01*
X018550Y009800D01*
X018500D01*
X018450Y009750D01*
Y009650D01*
X018500Y009600D01*
X018350Y009050D02*
X018050D01*
Y009200D01*
X018100Y009250D01*
X018200D01*
X018250Y009200D01*
Y009050D01*
Y009150D02*
X018350Y009250D01*
X018050Y009550D02*
X018100Y009450D01*
X018200Y009350D01*
X018300D01*
X018350Y009400D01*
Y009500D01*
X018300Y009550D01*
X018250D01*
X018200Y009500D01*
Y009350D01*
X017950Y009050D02*
X017650D01*
Y009200D01*
X017700Y009250D01*
X017800D01*
X017850Y009200D01*
Y009050D01*
Y009150D02*
X017950Y009250D01*
X017650Y009350D02*
Y009550D01*
X017700D01*
X017900Y009350D01*
X017950D01*
X014950Y008200D02*
X014650D01*
Y008350D01*
X014700Y008400D01*
X014800D01*
X014850Y008350D01*
Y008200D01*
Y008300D02*
X014950Y008400D01*
Y008500D02*
Y008600D01*
Y008550D01*
X014650D01*
X014700Y008500D01*
X014650Y008950D02*
X014700Y008850D01*
X014800Y008750D01*
X014900D01*
X014950Y008800D01*
Y008900D01*
X014900Y008950D01*
X014850D01*
X014800Y008900D01*
Y008750D01*
X008400Y010150D02*
X008350Y010200D01*
X008250D01*
X008200Y010150D01*
Y009950D01*
X008250Y009900D01*
X008350D01*
X008400Y009950D01*
X008700Y009900D02*
X008500D01*
X008700Y010100D01*
Y010150D01*
X008650Y010200D01*
X008550D01*
X008500Y010150D01*
X009000Y009900D02*
X008800D01*
X009000Y010100D01*
Y010150D01*
X008950Y010200D01*
X008850D01*
X008800Y010150D01*
X007400Y009300D02*
X007350Y009350D01*
X007250D01*
X007200Y009300D01*
Y009100D01*
X007250Y009050D01*
X007350D01*
X007400Y009100D01*
X007500Y009300D02*
X007550Y009350D01*
X007650D01*
X007700Y009300D01*
Y009250D01*
X007650Y009200D01*
X007600D01*
X007650D01*
X007700Y009150D01*
Y009100D01*
X007650Y009050D01*
X007550D01*
X007500Y009100D01*
X001750Y006300D02*
Y006600D01*
X001900D01*
X001950Y006550D01*
Y006450D01*
X001900Y006400D01*
X001750D01*
X002050Y006300D02*
X002150D01*
X002100D01*
Y006600D01*
X002050Y006550D01*
X012600Y002450D02*
Y002250D01*
X012750D01*
Y002350D01*
Y002250D01*
X012900D01*
Y002550D02*
X012600D01*
Y002700D01*
X012650Y002750D01*
X012750D01*
X012800Y002700D01*
Y002550D01*
X012900Y002850D02*
Y002950D01*
Y002900D01*
X012600D01*
X012650Y002850D01*
X007250Y005800D02*
Y005500D01*
X007400D01*
X007450Y005550D01*
Y005750D01*
X007400Y005800D01*
X007250D01*
X007550Y005500D02*
X007650D01*
X007600D01*
Y005800D01*
X007550Y005750D01*
X012200Y006250D02*
Y006550D01*
X012350D01*
X012400Y006500D01*
Y006400D01*
X012350Y006350D01*
X012200D01*
X012500Y006500D02*
X012550Y006550D01*
X012650D01*
X012700Y006500D01*
Y006450D01*
X012650Y006400D01*
X012600D01*
X012650D01*
X012700Y006350D01*
Y006300D01*
X012650Y006250D01*
X012550D01*
X012500Y006300D01*
X012950Y007950D02*
Y008250D01*
X013100D01*
X013150Y008200D01*
Y008100D01*
X013100Y008050D01*
X012950D01*
X013050D02*
X013150Y007950D01*
X013250D02*
X013350D01*
X013300D01*
Y008250D01*
X013250Y008200D01*
X013700Y008250D02*
X013500D01*
Y008100D01*
X013600Y008150D01*
X013650D01*
X013700Y008100D01*
Y008000D01*
X013650Y007950D01*
X013550D01*
X013500Y008000D01*
X012850Y009350D02*
Y009650D01*
X013000D01*
X013050Y009600D01*
Y009500D01*
X013000Y009450D01*
X012850D01*
X012950D02*
X013050Y009350D01*
X013150D02*
X013250D01*
X013200D01*
Y009650D01*
X013150Y009600D01*
X013400D02*
X013450Y009650D01*
X013550D01*
X013600Y009600D01*
Y009550D01*
X013550Y009500D01*
X013500D01*
X013550D01*
X013600Y009450D01*
Y009400D01*
X013550Y009350D01*
X013450D01*
X013400Y009400D01*
X012450Y008000D02*
X012150D01*
Y008150D01*
X012200Y008200D01*
X012300D01*
X012350Y008150D01*
Y008000D01*
Y008100D02*
X012450Y008200D01*
X012200Y008300D02*
X012150Y008350D01*
Y008450D01*
X012200Y008500D01*
X012250D01*
X012300Y008450D01*
X012350Y008500D01*
X012400D01*
X012450Y008450D01*
Y008350D01*
X012400Y008300D01*
X012350D01*
X012300Y008350D01*
X012250Y008300D01*
X012200D01*
X012300Y008350D02*
Y008450D01*
X011700Y007950D02*
X011650Y007900D01*
Y007800D01*
X011700Y007750D01*
X011900D01*
X011950Y007800D01*
Y007900D01*
X011900Y007950D01*
X011950Y008050D02*
Y008150D01*
Y008100D01*
X011650D01*
X011700Y008050D01*
X011650Y008500D02*
Y008300D01*
X011800D01*
X011750Y008400D01*
Y008450D01*
X011800Y008500D01*
X011900D01*
X011950Y008450D01*
Y008350D01*
X011900Y008300D01*
X010900Y010050D02*
X010850Y010000D01*
Y009900D01*
X010900Y009850D01*
X011100D01*
X011150Y009900D01*
Y010000D01*
X011100Y010050D01*
X011150Y010150D02*
Y010250D01*
Y010200D01*
X010850D01*
X010900Y010150D01*
X011150Y010400D02*
Y010500D01*
Y010450D01*
X010850D01*
X010900Y010400D01*
X011700Y011850D02*
X011400D01*
Y012000D01*
X011450Y012050D01*
X011550D01*
X011600Y012000D01*
Y011850D01*
Y011950D02*
X011700Y012050D01*
Y012150D02*
Y012250D01*
Y012200D01*
X011400D01*
X011450Y012150D01*
X011400Y012400D02*
Y012600D01*
X011450D01*
X011650Y012400D01*
X011700D01*
X005000Y011900D02*
X004950Y011950D01*
X004850D01*
X004800Y011900D01*
Y011700D01*
X004850Y011650D01*
X004950D01*
X005000Y011700D01*
X005250Y011650D02*
Y011950D01*
X005100Y011800D01*
X005300D01*
X005000Y011450D02*
X004950Y011500D01*
X004850D01*
X004800Y011450D01*
Y011250D01*
X004850Y011200D01*
X004950D01*
X005000Y011250D01*
X005300Y011500D02*
X005200Y011450D01*
X005100Y011350D01*
Y011250D01*
X005150Y011200D01*
X005250D01*
X005300Y011250D01*
Y011300D01*
X005250Y011350D01*
X005100D01*
X001400Y013750D02*
Y014050D01*
X001550D01*
X001600Y014000D01*
Y013900D01*
X001550Y013850D01*
X001400D01*
X001500D02*
X001600Y013750D01*
X001850D02*
Y014050D01*
X001700Y013900D01*
X001900D01*
X003350Y013750D02*
Y014050D01*
X003500D01*
X003550Y014000D01*
Y013900D01*
X003500Y013850D01*
X003350D01*
X003450D02*
X003550Y013750D01*
X003650Y014000D02*
X003700Y014050D01*
X003800D01*
X003850Y014000D01*
Y013950D01*
X003800Y013900D01*
X003750D01*
X003800D01*
X003850Y013850D01*
Y013800D01*
X003800Y013750D01*
X003700D01*
X003650Y013800D01*
X005550Y014550D02*
X005850D01*
Y014750D01*
Y014850D02*
Y014950D01*
Y014900D01*
X005550D01*
X005600Y014850D01*
X007000Y016600D02*
X006950Y016650D01*
X006850D01*
X006800Y016600D01*
Y016400D01*
X006850Y016350D01*
X006950D01*
X007000Y016400D01*
X007100D02*
X007150Y016350D01*
X007250D01*
X007300Y016400D01*
Y016600D01*
X007250Y016650D01*
X007150D01*
X007100Y016600D01*
Y016550D01*
X007150Y016500D01*
X007300D01*
X006299Y007500D02*
X006249Y007550D01*
X006149D01*
X006099Y007500D01*
Y007300D01*
X006149Y007250D01*
X006249D01*
X006299Y007300D01*
X006599Y007550D02*
X006399D01*
Y007400D01*
X006499Y007450D01*
X006549D01*
X006599Y007400D01*
Y007300D01*
X006549Y007250D01*
X006449D01*
X006399Y007300D01*
X010850Y025350D02*
Y025650D01*
X011000D01*
X011050Y025600D01*
Y025500D01*
X011000Y025450D01*
X010850D01*
X011350Y025350D02*
X011150D01*
X011350Y025550D01*
Y025600D01*
X011300Y025650D01*
X011200D01*
X011150Y025600D01*
X011100Y011000D02*
X010800D01*
Y011150D01*
X010850Y011200D01*
X010950D01*
X011000Y011150D01*
Y011000D01*
Y011100D02*
X011100Y011200D01*
Y011500D02*
Y011300D01*
X010900Y011500D01*
X010850D01*
X010800Y011450D01*
Y011350D01*
X010850Y011300D01*
Y011600D02*
X010800Y011650D01*
Y011750D01*
X010850Y011800D01*
X010900D01*
X010950Y011750D01*
Y011700D01*
Y011750D01*
X011000Y011800D01*
X011050D01*
X011100Y011750D01*
Y011650D01*
X011050Y011600D01*
X010400Y013050D02*
Y013350D01*
X010550D01*
X010600Y013300D01*
Y013200D01*
X010550Y013150D01*
X010400D01*
X010500D02*
X010600Y013050D01*
X010900D02*
X010700D01*
X010900Y013250D01*
Y013300D01*
X010850Y013350D01*
X010750D01*
X010700Y013300D01*
X011000Y013050D02*
X011100D01*
X011050D01*
Y013350D01*
X011000Y013300D01*
X010400Y013500D02*
Y013800D01*
X010550D01*
X010600Y013750D01*
Y013650D01*
X010550Y013600D01*
X010400D01*
X010500D02*
X010600Y013500D01*
X010900D02*
X010700D01*
X010900Y013700D01*
Y013750D01*
X010850Y013800D01*
X010750D01*
X010700Y013750D01*
X011200Y013500D02*
X011000D01*
X011200Y013700D01*
Y013750D01*
X011150Y013800D01*
X011050D01*
X011000Y013750D01*
X009050Y024850D02*
X009000Y024800D01*
Y024700D01*
X009050Y024650D01*
X009250D01*
X009300Y024700D01*
Y024800D01*
X009250Y024850D01*
X009300Y025150D02*
Y024950D01*
X009100Y025150D01*
X009050D01*
X009000Y025100D01*
Y025000D01*
X009050Y024950D01*
X009300Y025250D02*
Y025350D01*
Y025300D01*
X009000D01*
X009050Y025250D01*
X008600Y024050D02*
X008550Y024000D01*
Y023900D01*
X008600Y023850D01*
X008800D01*
X008850Y023900D01*
Y024000D01*
X008800Y024050D01*
X008850Y024350D02*
Y024150D01*
X008650Y024350D01*
X008600D01*
X008550Y024300D01*
Y024200D01*
X008600Y024150D01*
Y024450D02*
X008550Y024500D01*
Y024600D01*
X008600Y024650D01*
X008800D01*
X008850Y024600D01*
Y024500D01*
X008800Y024450D01*
X008600D01*
X009950Y025100D02*
X009900Y025150D01*
X009800D01*
X009750Y025100D01*
Y024900D01*
X009800Y024850D01*
X009900D01*
X009950Y024900D01*
X010050Y024850D02*
X010150D01*
X010100D01*
Y025150D01*
X010050Y025100D01*
X010300Y024900D02*
X010350Y024850D01*
X010450D01*
X010500Y024900D01*
Y025100D01*
X010450Y025150D01*
X010350D01*
X010300Y025100D01*
Y025050D01*
X010350Y025000D01*
X010500D01*
X014950Y024200D02*
X014900Y024150D01*
Y024050D01*
X014950Y024000D01*
X015150D01*
X015200Y024050D01*
Y024150D01*
X015150Y024200D01*
X015050D01*
Y024100D01*
X015200Y024300D02*
X014900D01*
X015200Y024500D01*
X014900D01*
Y024600D02*
X015200D01*
Y024750D01*
X015150Y024800D01*
X014950D01*
X014900Y024750D01*
Y024600D01*
X015800Y024000D02*
X016000D01*
X016100Y024100D01*
X016000Y024200D01*
X015800D01*
X015850Y024500D02*
X015800Y024450D01*
Y024350D01*
X015850Y024300D01*
X016050D01*
X016100Y024350D01*
Y024450D01*
X016050Y024500D01*
X015850Y024800D02*
X015800Y024750D01*
Y024650D01*
X015850Y024600D01*
X016050D01*
X016100Y024650D01*
Y024750D01*
X016050Y024800D01*
X015850Y025300D02*
X015800Y025250D01*
Y025150D01*
X015850Y025100D01*
X016050D01*
X016100Y025150D01*
Y025250D01*
X016050Y025300D01*
X015800Y025400D02*
X016100D01*
Y025600D01*
X015800Y025700D02*
X016100D01*
X016000D01*
X015800Y025900D01*
X015950Y025750D01*
X016100Y025900D01*
X014900Y025100D02*
Y025200D01*
Y025150D01*
X015200D01*
Y025100D01*
Y025200D01*
X014900Y025500D02*
Y025400D01*
X014950Y025350D01*
X015150D01*
X015200Y025400D01*
Y025500D01*
X015150Y025550D01*
X014950D01*
X014900Y025500D01*
X015650Y025100D02*
X015350D01*
Y025250D01*
X015400Y025300D01*
X015500D01*
X015550Y025250D01*
Y025100D01*
Y025200D02*
X015650Y025300D01*
X015400Y025600D02*
X015350Y025550D01*
Y025450D01*
X015400Y025400D01*
X015450D01*
X015500Y025450D01*
Y025550D01*
X015550Y025600D01*
X015600D01*
X015650Y025550D01*
Y025450D01*
X015600Y025400D01*
X015350Y025700D02*
Y025900D01*
Y025800D01*
X015650D01*
X001857Y017900D02*
Y017650D01*
X001907Y017600D01*
X002007D01*
X002057Y017650D01*
Y017900D01*
X002157Y017850D02*
X002207Y017900D01*
X002307D01*
X002357Y017850D01*
Y017800D01*
X002307Y017750D01*
X002257D01*
X002307D01*
X002357Y017700D01*
Y017650D01*
X002307Y017600D01*
X002207D01*
X002157Y017650D01*
X001417Y011660D02*
Y011410D01*
X001467Y011360D01*
X001567D01*
X001617Y011410D01*
Y011660D01*
X001717Y011360D02*
X001817D01*
X001767D01*
Y011660D01*
X001717Y011610D01*
X005807Y017290D02*
X005757Y017340D01*
X005657D01*
X005607Y017290D01*
Y017090D01*
X005657Y017040D01*
X005757D01*
X005807Y017090D01*
X005907Y017040D02*
X006007D01*
X005957D01*
Y017340D01*
X005907Y017290D01*
X006157D02*
X006207Y017340D01*
X006307D01*
X006357Y017290D01*
Y017090D01*
X006307Y017040D01*
X006207D01*
X006157Y017090D01*
Y017290D01*
X008757Y019460D02*
Y019760D01*
X008907D01*
X008957Y019710D01*
Y019610D01*
X008907Y019560D01*
X008757D01*
X008857D02*
X008957Y019460D01*
X009257D02*
X009057D01*
X009257Y019660D01*
Y019710D01*
X009207Y019760D01*
X009107D01*
X009057Y019710D01*
X009357D02*
X009407Y019760D01*
X009507D01*
X009557Y019710D01*
Y019510D01*
X009507Y019460D01*
X009407D01*
X009357Y019510D01*
Y019710D01*
X008150Y014050D02*
Y013800D01*
X008200Y013750D01*
X008300D01*
X008350Y013800D01*
Y014050D01*
X008650D02*
X008550Y014000D01*
X008450Y013900D01*
Y013800D01*
X008500Y013750D01*
X008600D01*
X008650Y013800D01*
Y013850D01*
X008600Y013900D01*
X008450D01*
X015950Y006550D02*
X015900Y006500D01*
Y006400D01*
X015950Y006350D01*
X016150D01*
X016200Y006400D01*
Y006500D01*
X016150Y006550D01*
X016200Y006850D02*
Y006650D01*
X016000Y006850D01*
X015950D01*
X015900Y006800D01*
Y006700D01*
X015950Y006650D01*
Y006950D02*
X015900Y007000D01*
Y007100D01*
X015950Y007150D01*
X016000D01*
X016050Y007100D01*
Y007050D01*
Y007100D01*
X016100Y007150D01*
X016150D01*
X016200Y007100D01*
Y007000D01*
X016150Y006950D01*
X015450Y007250D02*
Y007550D01*
X015600D01*
X015650Y007500D01*
Y007400D01*
X015600Y007350D01*
X015450D01*
X015550D02*
X015650Y007250D01*
X015950D02*
X015750D01*
X015950Y007450D01*
Y007500D01*
X015900Y007550D01*
X015800D01*
X015750Y007500D01*
X016200Y007250D02*
Y007550D01*
X016050Y007400D01*
X016250D01*
D80*
X011450Y025669D02*
X013050D01*
Y024331D02*
Y025669D01*
X011450Y024331D02*
X013050D01*
X011450D02*
Y025669D01*
M02*
