G04 Layer_Physical_Order=2*
G04 Layer_Color=16711680*
%FSAX24Y24*%
%MOIN*%
G70*
G01*
G75*
%ADD12R,0.0315X0.0354*%
%ADD17R,0.1100X0.1500*%
%ADD27C,0.0100*%
%ADD28C,0.0150*%
%ADD29C,0.0350*%
%ADD31C,0.0300*%
%ADD32C,0.0200*%
%ADD34C,0.0250*%
%ADD35C,0.0120*%
%ADD38R,0.1500X0.0300*%
%ADD39R,0.0300X0.1500*%
%ADD40R,0.0400X0.0500*%
%ADD41R,0.0500X0.0281*%
%ADD42R,0.0281X0.0500*%
%ADD44R,0.1750X0.2250*%
%ADD47C,0.1024*%
%ADD48C,0.1575*%
%ADD49C,0.0591*%
%ADD50R,0.0591X0.0591*%
%ADD51C,0.0374*%
%ADD52C,0.0551*%
%ADD53C,0.0472*%
%ADD54C,0.0591*%
%ADD55C,0.2362*%
%ADD56C,0.0197*%
%ADD57C,0.0394*%
%ADD58R,0.0748X0.0374*%
%ADD59R,0.2913X0.2165*%
%ADD60R,0.0236X0.0512*%
%ADD61R,0.0551X0.0472*%
%ADD62R,0.1100X0.0300*%
%ADD63C,0.0750*%
%ADD64R,0.1700X0.0850*%
%ADD65R,0.1102X0.0290*%
%ADD66R,0.0950X0.0550*%
%ADD67R,0.0550X0.0950*%
%ADD68R,0.1871X0.0807*%
%ADD69R,0.0600X0.0250*%
%ADD70R,0.1500X0.0450*%
%ADD71R,0.3600X0.4000*%
%ADD72R,0.4250X0.3800*%
%ADD73R,0.2100X0.1500*%
G36*
X005298Y015098D02*
X005300Y015090D01*
Y014110D01*
X005298Y014101D01*
X005293Y014093D01*
X004900Y013700D01*
X003650Y012450D01*
X003643Y012445D01*
X003643Y012445D01*
X003643Y012445D01*
X003634Y012447D01*
X003529Y012488D01*
X003522Y012490D01*
X003515Y012493D01*
X003499Y012500D01*
X003489Y012577D01*
X003459Y012650D01*
X003412Y012712D01*
X003350Y012759D01*
X003277Y012789D01*
X003200Y012799D01*
X003123Y012789D01*
X003050Y012759D01*
X002988Y012712D01*
X002963Y012678D01*
X002500D01*
X002500Y012678D01*
X002432Y012665D01*
X002374Y012626D01*
X002195Y012447D01*
X002099Y012466D01*
X002032Y012496D01*
X002009Y012550D01*
X001962Y012612D01*
X001900Y012659D01*
X001827Y012689D01*
X001750Y012699D01*
X001673Y012689D01*
X001600Y012659D01*
X001538Y012612D01*
X001491Y012550D01*
X001461Y012477D01*
X001451Y012400D01*
X001456Y012358D01*
X001348Y012250D01*
X000900D01*
Y014700D01*
X001131Y014931D01*
X001293Y015093D01*
X001301Y015098D01*
X001310Y015100D01*
X003800D01*
Y014815D01*
X004400D01*
Y015065D01*
X004500D01*
Y014815D01*
X005100D01*
Y015100D01*
X005290D01*
X005298Y015098D01*
D02*
G37*
G36*
X009599Y015244D02*
X009608Y015237D01*
X009619Y015232D01*
X009632Y015227D01*
X009646Y015222D01*
X009661Y015219D01*
X009678Y015216D01*
X009697Y015215D01*
X009738Y015213D01*
Y015013D01*
X009716Y015013D01*
X009678Y015010D01*
X009661Y015007D01*
X009646Y015004D01*
X009632Y014999D01*
X009619Y014994D01*
X009608Y014989D01*
X009599Y014982D01*
X009591Y014975D01*
Y015251D01*
X009599Y015244D01*
D02*
G37*
G36*
X001748Y012203D02*
X001731Y012203D01*
X001714Y012201D01*
X001697Y012197D01*
X001681Y012193D01*
X001665Y012186D01*
X001649Y012179D01*
X001634Y012170D01*
X001619Y012160D01*
X001605Y012148D01*
X001591Y012135D01*
X001485Y012241D01*
X001498Y012255D01*
X001510Y012269D01*
X001520Y012284D01*
X001529Y012299D01*
X001537Y012315D01*
X001543Y012331D01*
X001547Y012347D01*
X001551Y012364D01*
X001553Y012381D01*
X001553Y012398D01*
X001748Y012203D01*
D02*
G37*
G36*
X003059Y012362D02*
X003047Y012374D01*
X003033Y012385D01*
X003019Y012394D01*
X003004Y012402D01*
X002989Y012409D01*
X002972Y012415D01*
X002955Y012419D01*
X002938Y012422D01*
X002919Y012424D01*
X002900Y012425D01*
Y012575D01*
X002919Y012576D01*
X002938Y012578D01*
X002955Y012581D01*
X002972Y012585D01*
X002989Y012591D01*
X003004Y012598D01*
X003019Y012606D01*
X003033Y012615D01*
X003047Y012626D01*
X003059Y012638D01*
Y012362D01*
D02*
G37*
G36*
X010872Y014975D02*
X010864Y014982D01*
X010855Y014989D01*
X010844Y014994D01*
X010831Y014999D01*
X010817Y015004D01*
X010802Y015007D01*
X010785Y015010D01*
X010766Y015011D01*
X010725Y015013D01*
Y015213D01*
X010747Y015213D01*
X010785Y015216D01*
X010802Y015219D01*
X010817Y015222D01*
X010831Y015227D01*
X010844Y015232D01*
X010855Y015237D01*
X010864Y015244D01*
X010872Y015251D01*
Y014975D01*
D02*
G37*
G36*
X015220Y016597D02*
X015249Y016572D01*
X015263Y016562D01*
X015276Y016553D01*
X015289Y016546D01*
X015301Y016541D01*
X015313Y016537D01*
X015325Y016535D01*
X015335Y016534D01*
X015141Y016339D01*
X015140Y016350D01*
X015138Y016362D01*
X015134Y016373D01*
X015128Y016386D01*
X015122Y016399D01*
X015113Y016412D01*
X015103Y016426D01*
X015091Y016440D01*
X015063Y016470D01*
X015205Y016612D01*
X015220Y016597D01*
D02*
G37*
G36*
X013749Y016731D02*
X013758Y016724D01*
X013769Y016719D01*
X013782Y016714D01*
X013796Y016709D01*
X013811Y016706D01*
X013828Y016703D01*
X013847Y016702D01*
X013888Y016700D01*
Y016500D01*
X013866Y016500D01*
X013828Y016497D01*
X013811Y016494D01*
X013796Y016491D01*
X013782Y016486D01*
X013769Y016481D01*
X013758Y016476D01*
X013749Y016469D01*
X013741Y016462D01*
Y016738D01*
X013749Y016731D01*
D02*
G37*
G36*
X014989Y015884D02*
X014978Y015870D01*
X014969Y015856D01*
X014961Y015841D01*
X014954Y015826D01*
X014948Y015809D01*
X014944Y015792D01*
X014941Y015775D01*
X014939Y015756D01*
X014938Y015737D01*
X014788D01*
X014787Y015756D01*
X014785Y015775D01*
X014782Y015792D01*
X014778Y015809D01*
X014772Y015826D01*
X014765Y015841D01*
X014757Y015856D01*
X014748Y015870D01*
X014737Y015884D01*
X014725Y015896D01*
X015001D01*
X014989Y015884D01*
D02*
G37*
G36*
X019082Y000151D02*
X017410D01*
X017374Y000301D01*
X017385Y000307D01*
X017450Y000348D01*
X017512Y000396D01*
X017569Y000448D01*
X017621Y000505D01*
X017669Y000567D01*
X017710Y000632D01*
X017746Y000701D01*
X017776Y000772D01*
X017799Y000846D01*
X017816Y000922D01*
X017826Y000999D01*
X017829Y001076D01*
X017826Y001153D01*
X017816Y001230D01*
X017799Y001306D01*
X017776Y001380D01*
X017746Y001451D01*
X017710Y001520D01*
X017669Y001585D01*
X017621Y001647D01*
X017569Y001704D01*
X017512Y001756D01*
X017450Y001804D01*
X017385Y001845D01*
X017316Y001881D01*
X017245Y001911D01*
X017171Y001934D01*
X017095Y001951D01*
X017018Y001961D01*
X016941Y001964D01*
X016864Y001961D01*
X016787Y001951D01*
X016711Y001934D01*
X016637Y001911D01*
X016566Y001881D01*
X016497Y001845D01*
X016431Y001804D01*
X016370Y001756D01*
X016313Y001704D01*
X016261Y001647D01*
X016251Y001634D01*
X016101Y001685D01*
Y004500D01*
X016098Y004529D01*
X016089Y004558D01*
X016075Y004584D01*
X016057Y004607D01*
X015856Y004807D01*
Y004961D01*
X015853Y004990D01*
X015845Y005018D01*
X015831Y005045D01*
X015812Y005067D01*
X015497Y005383D01*
X015493Y005468D01*
X015514Y005532D01*
X015526Y005552D01*
X015553Y005563D01*
X015613Y005597D01*
X015669Y005636D01*
X015721Y005682D01*
X015766Y005733D01*
X015806Y005789D01*
X015839Y005849D01*
X015866Y005913D01*
X015885Y005979D01*
X015896Y006047D01*
X015900Y006115D01*
X015896Y006184D01*
X015885Y006252D01*
X015866Y006318D01*
X015839Y006381D01*
X015806Y006441D01*
X015766Y006497D01*
X015721Y006549D01*
X015669Y006594D01*
X015613Y006634D01*
X015553Y006667D01*
X015490Y006694D01*
X015424Y006713D01*
X015356Y006724D01*
X015287Y006728D01*
X015219Y006724D01*
X015151Y006713D01*
X015085Y006694D01*
X015022Y006667D01*
X014961Y006634D01*
X014905Y006594D01*
X014901Y006590D01*
X014751Y006653D01*
Y007000D01*
X014748Y007029D01*
X014739Y007058D01*
X014725Y007084D01*
X014707Y007107D01*
X013757Y008057D01*
X013734Y008075D01*
X013708Y008089D01*
X013679Y008098D01*
X013650Y008101D01*
X012579D01*
X012527Y008206D01*
X012520Y008251D01*
X012541Y008275D01*
X012565Y008315D01*
X012583Y008358D01*
X012594Y008403D01*
X012598Y008450D01*
X012594Y008496D01*
X014424Y010326D01*
X014446Y010352D01*
X014462Y010383D01*
X014472Y010416D01*
X014476Y010450D01*
Y013177D01*
X014987Y013689D01*
X014987Y013689D01*
X015009Y013715D01*
X015025Y013746D01*
X015035Y013779D01*
X015039Y013813D01*
Y015797D01*
X015074Y015826D01*
X015104Y015862D01*
X015128Y015902D01*
X015144Y015941D01*
X015146Y015945D01*
X015204Y016009D01*
X015285Y016041D01*
X015308Y016042D01*
X015337Y016040D01*
X015384Y016043D01*
X015429Y016054D01*
X015473Y016072D01*
X015512Y016097D01*
X015548Y016127D01*
X015578Y016162D01*
X015603Y016202D01*
X015621Y016245D01*
X015632Y016291D01*
X015635Y016337D01*
X015632Y016384D01*
X015621Y016429D01*
X015603Y016473D01*
X015578Y016512D01*
X015548Y016548D01*
X015512Y016578D01*
X015473Y016603D01*
X015429Y016621D01*
X015384Y016631D01*
X015337Y016635D01*
X015325Y016634D01*
X015217Y016742D01*
X015186Y016767D01*
X015152Y016786D01*
X015114Y016797D01*
X015075Y016801D01*
X013819D01*
X013811Y016811D01*
X013775Y016841D01*
X013735Y016865D01*
X013692Y016883D01*
X013647Y016894D01*
X013600Y016898D01*
X013553Y016894D01*
X013508Y016883D01*
X013465Y016865D01*
X013425Y016841D01*
X013389Y016811D01*
X013359Y016775D01*
X013336Y016759D01*
X013269Y016727D01*
X013196Y016718D01*
X013175Y016723D01*
X013150Y016726D01*
X012800D01*
X012775Y016723D01*
X012752Y016716D01*
X012730Y016704D01*
X012711Y016689D01*
X012461Y016439D01*
X011511Y015489D01*
X011384Y015362D01*
X011370Y015354D01*
X011239Y015327D01*
X011188Y015354D01*
X011148Y015378D01*
X011105Y015396D01*
X011060Y015407D01*
X011013Y015411D01*
X010966Y015407D01*
X010921Y015396D01*
X010878Y015378D01*
X010838Y015354D01*
X010802Y015324D01*
X010794Y015314D01*
X009669D01*
X009661Y015324D01*
X009625Y015354D01*
X009585Y015378D01*
X009542Y015396D01*
X009497Y015407D01*
X009450Y015411D01*
X009403Y015407D01*
X009358Y015396D01*
X009315Y015378D01*
X009275Y015354D01*
X009239Y015324D01*
X009209Y015288D01*
X009185Y015248D01*
X009167Y015205D01*
X009156Y015160D01*
X009152Y015113D01*
X009156Y015066D01*
X009167Y015021D01*
X009185Y014978D01*
X009209Y014938D01*
X009239Y014902D01*
X009275Y014872D01*
X009315Y014848D01*
X009358Y014830D01*
X009403Y014819D01*
X009450Y014815D01*
X009497Y014819D01*
X009542Y014830D01*
X009585Y014848D01*
X009625Y014872D01*
X009661Y014902D01*
X009669Y014912D01*
X010794D01*
X010802Y014902D01*
X010838Y014872D01*
X010878Y014848D01*
X010921Y014830D01*
X010966Y014819D01*
X011013Y014815D01*
X011060Y014819D01*
X011105Y014830D01*
X011148Y014848D01*
X011188Y014872D01*
X011224Y014902D01*
X011254Y014938D01*
X011275Y014973D01*
X011278Y014978D01*
Y014978D01*
X011320Y015038D01*
X011368Y015072D01*
X011400Y015074D01*
X011424Y015077D01*
X011448Y015084D01*
X011470Y015096D01*
X011489Y015111D01*
X011689Y015311D01*
X012639Y016261D01*
X012852Y016474D01*
X013150D01*
X013175Y016477D01*
X013196Y016481D01*
X013269Y016473D01*
X013336Y016441D01*
X013359Y016425D01*
X013389Y016389D01*
X013425Y016359D01*
X013465Y016335D01*
X013508Y016317D01*
X013553Y016306D01*
X013600Y016302D01*
X013647Y016306D01*
X013692Y016317D01*
X013735Y016335D01*
X013775Y016359D01*
X013811Y016389D01*
X013819Y016399D01*
X014605D01*
X014618Y016380D01*
X014654Y016249D01*
X014652Y016248D01*
X014622Y016212D01*
X014598Y016172D01*
X014580Y016129D01*
X014569Y016084D01*
X014565Y016037D01*
X014569Y015990D01*
X014580Y015945D01*
X014598Y015902D01*
X014622Y015862D01*
X014652Y015826D01*
X014687Y015797D01*
Y013886D01*
X014176Y013374D01*
X014154Y013348D01*
X014138Y013317D01*
X014128Y013284D01*
X014124Y013250D01*
X014124Y013250D01*
Y010523D01*
X012345Y008744D01*
X012300Y008748D01*
X012253Y008744D01*
X012208Y008733D01*
X012165Y008715D01*
X012125Y008691D01*
X012089Y008661D01*
X012059Y008625D01*
X012035Y008585D01*
X012017Y008542D01*
X012006Y008497D01*
X012002Y008450D01*
X012006Y008403D01*
X012017Y008358D01*
X012035Y008315D01*
X012059Y008275D01*
X012080Y008251D01*
X012073Y008206D01*
X012021Y008101D01*
X010950D01*
X010921Y008098D01*
X010892Y008089D01*
X010866Y008075D01*
X010843Y008057D01*
X010825Y008034D01*
X010811Y008008D01*
X010802Y007979D01*
X010799Y007950D01*
X010802Y007921D01*
X010811Y007892D01*
X010825Y007866D01*
X010843Y007843D01*
X010866Y007825D01*
X010892Y007811D01*
X010921Y007802D01*
X010950Y007799D01*
X013588D01*
X014449Y006938D01*
Y005800D01*
X014452Y005771D01*
X014461Y005742D01*
X014475Y005716D01*
X014493Y005693D01*
X014910Y005277D01*
X014849Y005132D01*
Y004850D01*
Y004571D01*
X014898Y004448D01*
X014898Y004423D01*
X014854Y004383D01*
X014808Y004332D01*
X014769Y004276D01*
X014735Y004216D01*
X014709Y004152D01*
X014690Y004086D01*
X014678Y004019D01*
X014675Y003950D01*
X014678Y003881D01*
X014690Y003814D01*
X014709Y003748D01*
X014735Y003684D01*
X014769Y003624D01*
X014808Y003568D01*
X014854Y003517D01*
X014905Y003471D01*
X014961Y003431D01*
X015022Y003398D01*
X015085Y003372D01*
X015151Y003353D01*
X015219Y003341D01*
X015287Y003337D01*
X015356Y003341D01*
X015424Y003353D01*
X015490Y003372D01*
X015553Y003398D01*
X015613Y003431D01*
X015649Y003457D01*
X015720Y003438D01*
X015799Y003386D01*
Y000250D01*
X015707Y000171D01*
X015667Y000151D01*
X014103D01*
X014066Y000301D01*
X014078Y000307D01*
X014143Y000348D01*
X014205Y000396D01*
X014262Y000448D01*
X014314Y000505D01*
X014361Y000567D01*
X014403Y000632D01*
X014439Y000701D01*
X014469Y000772D01*
X014492Y000846D01*
X014509Y000922D01*
X014519Y000999D01*
X014522Y001076D01*
X014519Y001153D01*
X014509Y001230D01*
X014492Y001306D01*
X014469Y001380D01*
X014439Y001451D01*
X014403Y001520D01*
X014361Y001585D01*
X014314Y001647D01*
X014262Y001704D01*
X014205Y001756D01*
X014143Y001804D01*
X014078Y001845D01*
X014009Y001881D01*
X013938Y001911D01*
X013864Y001934D01*
X013788Y001951D01*
X013711Y001961D01*
X013634Y001964D01*
X013556Y001961D01*
X013480Y001951D01*
X013404Y001934D01*
X013330Y001911D01*
X013258Y001881D01*
X013190Y001845D01*
X013124Y001804D01*
X013063Y001756D01*
X013006Y001704D01*
X012953Y001647D01*
X012906Y001585D01*
X012865Y001520D01*
X012829Y001451D01*
X012799Y001380D01*
X012776Y001306D01*
X012759Y001230D01*
X012749Y001153D01*
X012746Y001076D01*
X012749Y000999D01*
X012759Y000922D01*
X012776Y000846D01*
X012799Y000772D01*
X012829Y000701D01*
X012865Y000632D01*
X012906Y000567D01*
X012953Y000505D01*
X013006Y000448D01*
X013063Y000396D01*
X013124Y000348D01*
X013190Y000307D01*
X013201Y000301D01*
X013165Y000151D01*
X006760D01*
X006724Y000301D01*
X006735Y000307D01*
X006800Y000348D01*
X006862Y000396D01*
X006919Y000448D01*
X006971Y000505D01*
X007019Y000567D01*
X007060Y000632D01*
X007096Y000701D01*
X007126Y000772D01*
X007149Y000846D01*
X007166Y000922D01*
X007176Y000999D01*
X007179Y001076D01*
X007176Y001153D01*
X007166Y001230D01*
X007149Y001306D01*
X007126Y001380D01*
X007096Y001451D01*
X007060Y001520D01*
X007019Y001585D01*
X006971Y001647D01*
X006919Y001704D01*
X006862Y001756D01*
X006800Y001804D01*
X006735Y001845D01*
X006666Y001881D01*
X006595Y001911D01*
X006521Y001934D01*
X006445Y001951D01*
X006368Y001961D01*
X006291Y001964D01*
X006214Y001961D01*
X006137Y001951D01*
X006061Y001934D01*
X005987Y001911D01*
X005916Y001881D01*
X005847Y001845D01*
X005781Y001804D01*
X005720Y001756D01*
X005663Y001704D01*
X005611Y001647D01*
X005563Y001585D01*
X005522Y001520D01*
X005486Y001451D01*
X005456Y001380D01*
X005433Y001306D01*
X005416Y001230D01*
X005406Y001153D01*
X005403Y001076D01*
X005406Y000999D01*
X005416Y000922D01*
X005433Y000846D01*
X005456Y000772D01*
X005486Y000701D01*
X005522Y000632D01*
X005563Y000567D01*
X005611Y000505D01*
X005663Y000448D01*
X005720Y000396D01*
X005781Y000348D01*
X005847Y000307D01*
X005858Y000301D01*
X005822Y000151D01*
X003453D01*
X003416Y000301D01*
X003428Y000307D01*
X003493Y000348D01*
X003555Y000396D01*
X003612Y000448D01*
X003664Y000505D01*
X003711Y000567D01*
X003753Y000632D01*
X003789Y000701D01*
X003819Y000772D01*
X003842Y000846D01*
X003859Y000922D01*
X003869Y000999D01*
X003872Y001076D01*
X003869Y001153D01*
X003859Y001230D01*
X003842Y001306D01*
X003819Y001380D01*
X003789Y001451D01*
X003753Y001520D01*
X003711Y001585D01*
X003664Y001647D01*
X003612Y001704D01*
X003555Y001756D01*
X003493Y001804D01*
X003428Y001845D01*
X003359Y001881D01*
X003288Y001911D01*
X003214Y001934D01*
X003138Y001951D01*
X003061Y001961D01*
X002984Y001964D01*
X002906Y001961D01*
X002830Y001951D01*
X002754Y001934D01*
X002680Y001911D01*
X002608Y001881D01*
X002540Y001845D01*
X002474Y001804D01*
X002413Y001756D01*
X002356Y001704D01*
X002303Y001647D01*
X002256Y001585D01*
X002215Y001520D01*
X002179Y001451D01*
X002149Y001380D01*
X002126Y001306D01*
X002109Y001230D01*
X002099Y001153D01*
X002096Y001076D01*
X002099Y000999D01*
X002109Y000922D01*
X002126Y000846D01*
X002149Y000772D01*
X002179Y000701D01*
X002215Y000632D01*
X002256Y000567D01*
X002303Y000505D01*
X002356Y000448D01*
X002413Y000396D01*
X002474Y000348D01*
X002540Y000307D01*
X002551Y000301D01*
X002515Y000151D01*
X000775D01*
Y006314D01*
X000925Y006377D01*
X001310Y005991D01*
X001337Y005969D01*
X001367Y005953D01*
X001400Y005943D01*
X001435Y005940D01*
X001435Y005940D01*
X001503D01*
X001612Y005841D01*
Y005282D01*
X001612Y005168D01*
X001612Y005018D01*
Y004459D01*
X002042D01*
X002075Y004439D01*
X002149Y004386D01*
X002218Y004325D01*
X002335Y004209D01*
X002341Y004197D01*
X002357Y004161D01*
X002370Y004124D01*
X002380Y004085D01*
X002383Y004067D01*
X002375Y004019D01*
X002371Y003950D01*
X002375Y003881D01*
X002386Y003814D01*
X002405Y003748D01*
X002432Y003684D01*
X002465Y003624D01*
X002505Y003568D01*
X002551Y003517D01*
X002602Y003471D01*
X002658Y003431D01*
X002718Y003398D01*
X002781Y003372D01*
X002848Y003353D01*
X002915Y003341D01*
X002984Y003337D01*
X003052Y003341D01*
X003120Y003353D01*
X003186Y003372D01*
X003250Y003398D01*
X003310Y003431D01*
X003366Y003471D01*
X003417Y003517D01*
X003463Y003568D01*
X003503Y003624D01*
X003536Y003684D01*
X003562Y003748D01*
X003581Y003814D01*
X003593Y003881D01*
X003597Y003950D01*
X003593Y004019D01*
X003584Y004067D01*
X003587Y004085D01*
X003598Y004124D01*
X003611Y004161D01*
X003627Y004197D01*
X003633Y004209D01*
X003672Y004248D01*
X003714Y004282D01*
X003789Y004336D01*
X003828Y004359D01*
X003995D01*
X004005Y004353D01*
X004085Y004216D01*
X004059Y004152D01*
X004040Y004086D01*
X004028Y004019D01*
X004025Y003950D01*
X004028Y003881D01*
X004040Y003814D01*
X004059Y003748D01*
X004085Y003684D01*
X004119Y003624D01*
X004158Y003568D01*
X004204Y003517D01*
X004255Y003471D01*
X004311Y003431D01*
X004372Y003398D01*
X004435Y003372D01*
X004501Y003353D01*
X004569Y003341D01*
X004637Y003337D01*
X004706Y003341D01*
X004774Y003353D01*
X004840Y003372D01*
X004903Y003398D01*
X004963Y003431D01*
X005019Y003471D01*
X005071Y003517D01*
X005116Y003568D01*
X005156Y003624D01*
X005189Y003684D01*
X005216Y003748D01*
X005235Y003814D01*
X005246Y003881D01*
X005250Y003950D01*
X005246Y004019D01*
X005235Y004086D01*
X005233Y004093D01*
X005237Y004161D01*
X005244Y004216D01*
X005254Y004265D01*
X005265Y004308D01*
X005277Y004340D01*
X005717Y004780D01*
X005717Y004781D01*
X005738Y004807D01*
X005755Y004838D01*
X005765Y004871D01*
X005768Y004905D01*
X005768Y004905D01*
Y005561D01*
X005884Y005623D01*
X005918Y005630D01*
X005965Y005597D01*
X006025Y005563D01*
X006089Y005537D01*
X006155Y005518D01*
X006166Y005516D01*
Y006115D01*
Y006562D01*
X006042D01*
X006056Y006573D01*
X006068Y006587D01*
X006079Y006605D01*
X006089Y006627D01*
X006097Y006653D01*
X006104Y006683D01*
X006107Y006699D01*
X006089Y006694D01*
X006025Y006667D01*
X005965Y006634D01*
X005918Y006601D01*
X005884Y006608D01*
X005768Y006670D01*
Y007455D01*
X005775Y007459D01*
X005811Y007489D01*
X005841Y007525D01*
X005865Y007565D01*
X005883Y007608D01*
X005894Y007653D01*
X005898Y007700D01*
X005894Y007747D01*
X005883Y007792D01*
X005865Y007835D01*
X005841Y007875D01*
X005811Y007911D01*
X005775Y007941D01*
X005735Y007965D01*
X005692Y007983D01*
X005647Y007994D01*
X005600Y007998D01*
X005553Y007994D01*
X005508Y007983D01*
X005465Y007965D01*
X005425Y007941D01*
X005389Y007911D01*
X005359Y007875D01*
X005350Y007860D01*
X005267Y007866D01*
X005200Y007896D01*
Y011150D01*
X001611D01*
X001549Y011300D01*
X002573Y012324D01*
X002960D01*
X002989Y012289D01*
X003025Y012259D01*
X003065Y012235D01*
X003108Y012217D01*
X003153Y012206D01*
X003200Y012202D01*
X003247Y012206D01*
X003292Y012217D01*
X003335Y012235D01*
X003375Y012259D01*
X003411Y012289D01*
X003441Y012325D01*
X003465Y012365D01*
X003479Y012398D01*
X003491Y012394D01*
X003495Y012393D01*
X003597Y012353D01*
X003606Y012351D01*
X003616Y012348D01*
X003625Y012346D01*
X003629Y012346D01*
X003633Y012345D01*
X003638Y012345D01*
X003643Y012344D01*
X003646Y012345D01*
X003649Y012345D01*
X003650Y012345D01*
X003651Y012345D01*
X003655Y012346D01*
X003660Y012346D01*
X003664Y012347D01*
X003669Y012348D01*
X003672Y012349D01*
X003675Y012350D01*
X003676Y012350D01*
X003677Y012350D01*
X003681Y012352D01*
X003685Y012354D01*
X003689Y012356D01*
X003693Y012358D01*
X003696Y012360D01*
X003699Y012361D01*
X003706Y012366D01*
X003714Y012373D01*
X003722Y012379D01*
X004971Y013629D01*
X005364Y014022D01*
X005370Y014029D01*
X005377Y014037D01*
X005382Y014045D01*
X005385Y014051D01*
X005389Y014056D01*
X005391Y014062D01*
X005394Y014068D01*
X005395Y014075D01*
X005397Y014081D01*
X005399Y014090D01*
X005400Y014100D01*
X005401Y014110D01*
Y015090D01*
X005400Y015100D01*
X005399Y015110D01*
X005397Y015118D01*
X005395Y015124D01*
X005394Y015131D01*
X005391Y015137D01*
X005389Y015143D01*
X005385Y015148D01*
X005382Y015154D01*
X005378Y015159D01*
X005374Y015165D01*
X005369Y015169D01*
X005365Y015174D01*
X005359Y015178D01*
X005354Y015182D01*
X005348Y015185D01*
X005343Y015189D01*
X005337Y015191D01*
X005331Y015194D01*
X005324Y015195D01*
X005318Y015197D01*
X005310Y015199D01*
X005300Y015200D01*
X005290Y015201D01*
X005110D01*
X005102Y015210D01*
Y015500D01*
X005100Y015516D01*
Y015516D01*
X005099Y015526D01*
X005089Y015550D01*
X005073Y015571D01*
X005052Y015587D01*
X005027Y015597D01*
X005001Y015601D01*
X003899D01*
X003873Y015597D01*
X003848Y015587D01*
X003827Y015571D01*
X003811Y015550D01*
X003801Y015526D01*
X003800Y015516D01*
Y015516D01*
X003798Y015500D01*
Y015210D01*
X003790Y015201D01*
X001310D01*
X001300Y015200D01*
X001290Y015199D01*
X001281Y015197D01*
X001275Y015195D01*
X001268Y015194D01*
X001262Y015191D01*
X001256Y015189D01*
X001251Y015185D01*
X001245Y015182D01*
X001237Y015177D01*
X001229Y015170D01*
X001222Y015164D01*
X000925Y014867D01*
X000775Y014930D01*
Y026100D01*
X019082D01*
Y000151D01*
D02*
G37*
G36*
X012565Y008609D02*
X012552Y008595D01*
X012540Y008581D01*
X012530Y008566D01*
X012521Y008551D01*
X012514Y008535D01*
X012507Y008519D01*
X012503Y008503D01*
X012499Y008486D01*
X012497Y008469D01*
X012497Y008452D01*
X012302Y008647D01*
X012319Y008647D01*
X012336Y008649D01*
X012353Y008653D01*
X012369Y008657D01*
X012385Y008663D01*
X012401Y008671D01*
X012416Y008680D01*
X012431Y008690D01*
X012445Y008702D01*
X012459Y008715D01*
X012565Y008609D01*
D02*
G37*
G36*
X015378Y004722D02*
X015386Y004682D01*
X015389Y004674D01*
X015432D01*
X015421Y004670D01*
X015412Y004658D01*
X015403Y004638D01*
X015402Y004634D01*
X015417Y004599D01*
X015441Y004555D01*
X015470Y004511D01*
X015504Y004466D01*
X015543Y004420D01*
X015637Y004324D01*
X015376Y004318D01*
X015376Y004274D01*
X015176D01*
X015175Y004313D01*
X014921Y004307D01*
X014969Y004359D01*
X015051Y004457D01*
X015084Y004505D01*
X015112Y004550D01*
X015135Y004594D01*
X015150Y004631D01*
X015148Y004638D01*
X015140Y004658D01*
X015130Y004670D01*
X015119Y004674D01*
X015164D01*
X015165Y004678D01*
X015173Y004718D01*
X015176Y004757D01*
X015376Y004761D01*
X015378Y004722D01*
D02*
G37*
G36*
X003989Y004462D02*
X003961Y004480D01*
X003922Y004483D01*
X003873Y004471D01*
X003814Y004444D01*
X003745Y004402D01*
X003666Y004345D01*
X003579Y004275D01*
X003577Y004273D01*
X003555Y004233D01*
X003537Y004191D01*
X003521Y004147D01*
X003510Y004101D01*
X003502Y004054D01*
X003497Y004006D01*
X003496Y003955D01*
X003367Y004083D01*
X003367Y004083D01*
X003247Y003966D01*
X003068Y004282D01*
X003118Y004333D01*
X002989Y004462D01*
X003039Y004463D01*
X003088Y004468D01*
X003135Y004476D01*
X003181Y004488D01*
X003224Y004503D01*
X003266Y004521D01*
X003307Y004544D01*
X003312Y004547D01*
X003439Y004691D01*
X003484Y004753D01*
X003518Y004808D01*
X003543Y004855D01*
X003558Y004896D01*
X003563Y004931D01*
X003989Y004462D01*
D02*
G37*
G36*
X005266Y004472D02*
X005243Y004445D01*
X005222Y004413D01*
X005205Y004375D01*
X005189Y004332D01*
X005176Y004283D01*
X005166Y004228D01*
X005158Y004168D01*
X005150Y004032D01*
X005149Y003955D01*
X004643Y004462D01*
X004719Y004462D01*
X004856Y004471D01*
X004916Y004478D01*
X004970Y004489D01*
X005019Y004502D01*
X005062Y004517D01*
X005100Y004535D01*
X005133Y004555D01*
X005160Y004578D01*
X005266Y004472D01*
D02*
G37*
G36*
X002268Y005003D02*
X002287Y004966D01*
X002317Y004918D01*
X002361Y004861D01*
X002485Y004715D01*
X002619Y004572D01*
X002622Y004569D01*
X002661Y004544D01*
X002701Y004521D01*
X002743Y004503D01*
X002787Y004488D01*
X002832Y004476D01*
X002879Y004468D01*
X002928Y004463D01*
X002979Y004462D01*
X002849Y004332D01*
X002881Y004301D01*
X002621Y004066D01*
X002601Y004085D01*
X002472Y003955D01*
X002471Y004006D01*
X002466Y004054D01*
X002458Y004101D01*
X002446Y004147D01*
X002431Y004191D01*
X002412Y004233D01*
X002390Y004273D01*
X002378Y004291D01*
X002199Y004448D01*
X002119Y004506D01*
X002050Y004547D01*
X001992Y004574D01*
X001943Y004585D01*
X001906Y004581D01*
X001878Y004562D01*
X002262Y005031D01*
X002268Y005003D01*
D02*
G37*
G36*
X004114Y005540D02*
X004123Y005527D01*
X004138Y005516D01*
X004159Y005506D01*
X004186Y005498D01*
X004219Y005491D01*
X004258Y005486D01*
X004355Y005480D01*
X004412Y005479D01*
Y005329D01*
X004355Y005329D01*
X004219Y005317D01*
X004186Y005311D01*
X004159Y005302D01*
X004138Y005293D01*
X004123Y005281D01*
X004114Y005269D01*
X004111Y005254D01*
Y005554D01*
X004114Y005540D01*
D02*
G37*
G36*
X004142Y006721D02*
X004174Y006700D01*
X004212Y006683D01*
X004256Y006667D01*
X004305Y006654D01*
X004359Y006644D01*
X004419Y006636D01*
X004556Y006628D01*
X004632Y006627D01*
X004126Y006120D01*
X004125Y006197D01*
X004117Y006334D01*
X004109Y006394D01*
X004099Y006448D01*
X004086Y006497D01*
X004070Y006540D01*
X004052Y006578D01*
X004032Y006611D01*
X004009Y006637D01*
X004115Y006744D01*
X004142Y006721D01*
D02*
G37*
G36*
X005732Y007554D02*
X005720Y007542D01*
X005709Y007529D01*
X005699Y007515D01*
X005691Y007501D01*
X005683Y007485D01*
X005678Y007469D01*
X005673Y007452D01*
X005670Y007435D01*
X005668Y007416D01*
X005667Y007397D01*
X005517Y007403D01*
X005517Y007422D01*
X005515Y007441D01*
X005512Y007459D01*
X005508Y007476D01*
X005502Y007492D01*
X005495Y007508D01*
X005488Y007523D01*
X005479Y007538D01*
X005468Y007552D01*
X005457Y007565D01*
X005732Y007554D01*
D02*
G37*
G36*
X002618Y005964D02*
X002979Y005604D01*
X002902Y005603D01*
X002766Y005595D01*
X002706Y005587D01*
X002651Y005576D01*
X002602Y005564D01*
X002559Y005548D01*
X002521Y005530D01*
X002489Y005510D01*
X002462Y005487D01*
X002356Y005593D01*
X002379Y005620D01*
X002399Y005652D01*
X002417Y005690D01*
X002432Y005734D01*
X002445Y005783D01*
X002455Y005837D01*
X002463Y005897D01*
X002463Y005900D01*
X002461Y005902D01*
X002413Y005938D01*
X002368Y005970D01*
X002324Y005995D01*
X002282Y006015D01*
X002243Y006029D01*
X002206Y006038D01*
X002170Y006040D01*
Y006190D01*
X002206Y006193D01*
X002243Y006202D01*
X002282Y006216D01*
X002324Y006236D01*
X002368Y006261D01*
X002413Y006292D01*
X002461Y006329D01*
X002564Y006420D01*
X002618Y006474D01*
Y005964D01*
D02*
G37*
G36*
X004741Y005613D02*
X004735Y005609D01*
X004730Y005603D01*
X004725Y005595D01*
X004721Y005585D01*
X004718Y005573D01*
X004716Y005560D01*
X004714Y005545D01*
X004713Y005528D01*
X004712Y005509D01*
X004562D01*
X004562Y005528D01*
X004559Y005560D01*
X004557Y005573D01*
X004553Y005585D01*
X004550Y005595D01*
X004545Y005603D01*
X004540Y005609D01*
X004533Y005613D01*
X004527Y005616D01*
X004748D01*
X004741Y005613D01*
D02*
G37*
G36*
X018932Y035039D02*
X018930D01*
X018949Y034897D01*
X019004Y034765D01*
X019091Y034652D01*
X019205Y034564D01*
X019337Y034510D01*
X019479Y034491D01*
Y034493D01*
X019926D01*
Y034070D01*
X019291D01*
Y034071D01*
X019170Y034055D01*
X019151Y034047D01*
X019057Y034009D01*
X018960Y033934D01*
X018885Y033837D01*
X018838Y033724D01*
X018822Y033602D01*
X018838Y033481D01*
X018885Y033368D01*
X018960Y033271D01*
X019057Y033196D01*
X019151Y033157D01*
X019170Y033149D01*
X019291Y033133D01*
Y033134D01*
X019291Y033134D01*
X019926D01*
Y032846D01*
X018697D01*
X018697Y032846D01*
Y032848D01*
X018555Y032829D01*
X018423Y032774D01*
X018309Y032687D01*
X018222Y032573D01*
X018167Y032441D01*
X018148Y032299D01*
X018150D01*
Y030702D01*
X018148D01*
X018167Y030560D01*
X018222Y030428D01*
X018309Y030314D01*
X018423Y030227D01*
X018555Y030172D01*
X018697Y030154D01*
Y030155D01*
X018697Y030155D01*
X019926D01*
Y029867D01*
X019291D01*
X019291Y029867D01*
Y029868D01*
X019170Y029852D01*
X019151Y029844D01*
X019057Y029805D01*
X018960Y029730D01*
X018885Y029633D01*
X018838Y029520D01*
X018822Y029399D01*
X018838Y029277D01*
X018885Y029164D01*
X018960Y029067D01*
X019057Y028993D01*
X019151Y028954D01*
X019170Y028946D01*
X019291Y028930D01*
Y028931D01*
X019926D01*
Y028508D01*
X019479D01*
Y028510D01*
X019337Y028492D01*
X019205Y028437D01*
X019091Y028350D01*
X019004Y028236D01*
X018968Y028150D01*
X012878D01*
X012868Y028160D01*
X012813Y028300D01*
X012833Y028326D01*
X012867Y028408D01*
X012878Y028496D01*
X012867Y028584D01*
X012833Y028666D01*
X012779Y028736D01*
X012709Y028790D01*
X012627Y028824D01*
X012539Y028835D01*
X012452Y028824D01*
X012370Y028790D01*
X012300Y028736D01*
X012246Y028666D01*
X012212Y028584D01*
X012200Y028496D01*
X012212Y028408D01*
X012246Y028326D01*
X012266Y028300D01*
X012211Y028160D01*
X012201Y028150D01*
X011936D01*
X011862Y028300D01*
X011867Y028307D01*
X011905Y028398D01*
X011918Y028496D01*
X011905Y028594D01*
X011867Y028685D01*
X011807Y028764D01*
X011729Y028824D01*
X011637Y028862D01*
X011539Y028875D01*
X011441Y028862D01*
X011350Y028824D01*
X011272Y028764D01*
X011211Y028685D01*
X011173Y028594D01*
X011161Y028496D01*
X011173Y028398D01*
X011211Y028307D01*
X011216Y028300D01*
X011142Y028150D01*
X010936D01*
X010862Y028300D01*
X010867Y028307D01*
X010905Y028398D01*
X010918Y028496D01*
X010905Y028594D01*
X010867Y028685D01*
X010807Y028764D01*
X010729Y028824D01*
X010637Y028862D01*
X010539Y028875D01*
X010441Y028862D01*
X010350Y028824D01*
X010272Y028764D01*
X010211Y028685D01*
X010173Y028594D01*
X010161Y028496D01*
X010173Y028398D01*
X010211Y028307D01*
X010216Y028300D01*
X010142Y028150D01*
X009936D01*
X009862Y028300D01*
X009867Y028307D01*
X009905Y028398D01*
X009918Y028496D01*
X009905Y028594D01*
X009867Y028685D01*
X009807Y028764D01*
X009729Y028824D01*
X009637Y028862D01*
X009539Y028875D01*
X009441Y028862D01*
X009350Y028824D01*
X009272Y028764D01*
X009211Y028685D01*
X009173Y028594D01*
X009161Y028496D01*
X009173Y028398D01*
X009211Y028307D01*
X009216Y028300D01*
X009142Y028150D01*
X008936D01*
X008862Y028300D01*
X008867Y028307D01*
X008905Y028398D01*
X008918Y028496D01*
X008905Y028594D01*
X008867Y028685D01*
X008807Y028764D01*
X008729Y028824D01*
X008637Y028862D01*
X008539Y028875D01*
X008441Y028862D01*
X008350Y028824D01*
X008271Y028764D01*
X008211Y028685D01*
X008173Y028594D01*
X008161Y028496D01*
X008173Y028398D01*
X008211Y028307D01*
X008216Y028300D01*
X008142Y028150D01*
X007936D01*
X007862Y028300D01*
X007867Y028307D01*
X007905Y028398D01*
X007918Y028496D01*
X007905Y028594D01*
X007867Y028685D01*
X007807Y028764D01*
X007729Y028824D01*
X007637Y028862D01*
X007539Y028875D01*
X007441Y028862D01*
X007350Y028824D01*
X007272Y028764D01*
X007211Y028685D01*
X007173Y028594D01*
X007161Y028496D01*
X007173Y028398D01*
X007211Y028307D01*
X007216Y028300D01*
X007142Y028150D01*
X001107D01*
X001075Y028227D01*
X000988Y028341D01*
X000874Y028428D01*
X000742Y028482D01*
X000600Y028501D01*
Y028499D01*
X000153D01*
Y028922D01*
X000787D01*
Y028921D01*
X000909Y028937D01*
X000928Y028945D01*
X001022Y028984D01*
X001119Y029058D01*
X001194Y029155D01*
X001240Y029268D01*
X001256Y029390D01*
X001240Y029511D01*
X001194Y029624D01*
X001119Y029721D01*
X001022Y029796D01*
X000928Y029835D01*
X000909Y029843D01*
X000787Y029859D01*
Y029858D01*
X000787Y029858D01*
X000153D01*
Y030146D01*
X001382D01*
X001382Y030146D01*
Y030145D01*
X001524Y030163D01*
X001656Y030218D01*
X001770Y030305D01*
X001857Y030419D01*
X001912Y030551D01*
X001930Y030693D01*
X001929D01*
Y032290D01*
X001930D01*
X001912Y032432D01*
X001857Y032564D01*
X001770Y032678D01*
X001656Y032765D01*
X001524Y032820D01*
X001382Y032839D01*
Y032837D01*
X001382Y032837D01*
X000153D01*
Y033125D01*
X000787D01*
X000787Y033125D01*
Y033124D01*
X000909Y033140D01*
X000928Y033148D01*
X001022Y033187D01*
X001119Y033262D01*
X001194Y033359D01*
X001240Y033472D01*
X001256Y033593D01*
X001240Y033715D01*
X001194Y033828D01*
X001119Y033925D01*
X001022Y033999D01*
X000928Y034038D01*
X000909Y034046D01*
X000787Y034062D01*
Y034061D01*
X000153D01*
Y034484D01*
X000600D01*
Y034482D01*
X000742Y034501D01*
X000874Y034555D01*
X000988Y034643D01*
X001075Y034756D01*
X001130Y034888D01*
X001148Y035030D01*
X001147D01*
Y035280D01*
X018932D01*
Y035039D01*
D02*
G37*
%LPC*%
G36*
X007991Y007535D02*
X007642D01*
Y007373D01*
X007991D01*
Y007535D01*
D02*
G37*
G36*
X008590Y007123D02*
X008241D01*
Y006961D01*
X008590D01*
Y007123D01*
D02*
G37*
G36*
X006756Y032395D02*
X006653Y032381D01*
X006557Y032341D01*
X006474Y032278D01*
X006411Y032195D01*
X006371Y032099D01*
X006357Y031996D01*
X006371Y031893D01*
X006411Y031797D01*
X006474Y031714D01*
X006557Y031651D01*
X006653Y031611D01*
X006756Y031597D01*
X006859Y031611D01*
X006955Y031651D01*
X007038Y031714D01*
X007101Y031797D01*
X007141Y031893D01*
X007155Y031996D01*
X007141Y032099D01*
X007101Y032195D01*
X007038Y032278D01*
X006955Y032341D01*
X006859Y032381D01*
X006756Y032395D01*
D02*
G37*
G36*
X008590Y007535D02*
X008241D01*
Y007373D01*
X008590D01*
Y007535D01*
D02*
G37*
G36*
X007756Y032395D02*
X007653Y032381D01*
X007557Y032341D01*
X007474Y032278D01*
X007411Y032195D01*
X007371Y032099D01*
X007357Y031996D01*
X007371Y031893D01*
X007411Y031797D01*
X007474Y031714D01*
X007557Y031651D01*
X007653Y031611D01*
X007756Y031597D01*
X007859Y031611D01*
X007955Y031651D01*
X008038Y031714D01*
X008101Y031797D01*
X008141Y031893D01*
X008155Y031996D01*
X008141Y032099D01*
X008101Y032195D01*
X008038Y032278D01*
X007955Y032341D01*
X007859Y032381D01*
X007756Y032395D01*
D02*
G37*
G36*
X006707Y005990D02*
X006416D01*
Y005516D01*
X006427Y005518D01*
X006493Y005537D01*
X006557Y005563D01*
X006617Y005597D01*
X006673Y005636D01*
X006724Y005682D01*
X006770Y005733D01*
X006810Y005789D01*
X006843Y005849D01*
X006869Y005913D01*
X006871Y005919D01*
X006839Y005910D01*
X006805Y005896D01*
X006776Y005880D01*
X006749Y005862D01*
X006727Y005841D01*
X006707Y005818D01*
Y005990D01*
D02*
G37*
G36*
X006475Y006699D02*
X006478Y006683D01*
X006485Y006653D01*
X006493Y006627D01*
X006502Y006605D01*
X006514Y006587D01*
X006526Y006573D01*
X006540Y006562D01*
X006416D01*
Y006240D01*
X006707D01*
Y006413D01*
X006727Y006390D01*
X006749Y006369D01*
X006776Y006350D01*
X006805Y006334D01*
X006839Y006321D01*
X006871Y006311D01*
X006869Y006318D01*
X006843Y006381D01*
X006810Y006441D01*
X006770Y006497D01*
X006724Y006549D01*
X006673Y006594D01*
X006617Y006634D01*
X006557Y006667D01*
X006493Y006694D01*
X006475Y006699D01*
D02*
G37*
G36*
X007991Y007123D02*
X007642D01*
Y006961D01*
X007991D01*
Y007123D01*
D02*
G37*
G36*
X016650Y007648D02*
X016603Y007644D01*
X016558Y007633D01*
X016515Y007615D01*
X016475Y007591D01*
X016439Y007561D01*
X016409Y007525D01*
X016385Y007485D01*
X016367Y007442D01*
X016356Y007397D01*
X016352Y007350D01*
X016356Y007303D01*
X016367Y007258D01*
X016385Y007215D01*
X016409Y007175D01*
X016439Y007139D01*
X016475Y007109D01*
X016515Y007085D01*
X016558Y007067D01*
X016603Y007056D01*
X016650Y007052D01*
X016697Y007056D01*
X016742Y007067D01*
X016785Y007085D01*
X016825Y007109D01*
X016861Y007139D01*
X017021Y007130D01*
X017372Y006779D01*
X017366Y006748D01*
X017350Y006729D01*
X017209Y006668D01*
X017200Y006670D01*
X017143Y006694D01*
X017077Y006713D01*
X017010Y006724D01*
X016941Y006728D01*
X016872Y006724D01*
X016805Y006713D01*
X016739Y006694D01*
X016675Y006667D01*
X016615Y006634D01*
X016559Y006594D01*
X016508Y006549D01*
X016462Y006497D01*
X016422Y006441D01*
X016389Y006381D01*
X016363Y006318D01*
X016344Y006252D01*
X016332Y006184D01*
X016328Y006115D01*
X016332Y006047D01*
X016344Y005979D01*
X016363Y005913D01*
X016389Y005849D01*
X016422Y005789D01*
X016462Y005733D01*
X016508Y005682D01*
X016559Y005636D01*
X016615Y005597D01*
X016675Y005563D01*
X016739Y005537D01*
X016754Y005533D01*
X016775Y005511D01*
X016817Y005422D01*
X016825Y005362D01*
X016817Y005342D01*
X016806Y005297D01*
X016802Y005250D01*
X016806Y005203D01*
X016817Y005158D01*
X016835Y005115D01*
X016859Y005075D01*
X016889Y005039D01*
X016925Y005009D01*
X016965Y004985D01*
X017008Y004967D01*
X017053Y004956D01*
X017100Y004952D01*
X017147Y004956D01*
X017192Y004967D01*
X017235Y004985D01*
X017275Y005009D01*
X017311Y005039D01*
X017340Y005074D01*
X017400D01*
X017400Y005074D01*
X017434Y005078D01*
X017467Y005088D01*
X017498Y005104D01*
X017524Y005126D01*
X017774Y005376D01*
X017774Y005376D01*
X017796Y005402D01*
X017812Y005433D01*
X017822Y005466D01*
X017826Y005500D01*
Y006750D01*
X017822Y006784D01*
X017812Y006817D01*
X017796Y006848D01*
X017774Y006874D01*
X017174Y007474D01*
X017148Y007496D01*
X017117Y007512D01*
X017084Y007522D01*
X017050Y007526D01*
X017050Y007526D01*
X016890D01*
X016861Y007561D01*
X016825Y007591D01*
X016785Y007615D01*
X016742Y007633D01*
X016697Y007644D01*
X016650Y007648D01*
D02*
G37*
G36*
X017925Y007775D02*
X017675D01*
X017684Y007748D01*
X017707Y007702D01*
X017736Y007659D01*
X017770Y007620D01*
X017809Y007586D01*
X017852Y007557D01*
X017898Y007534D01*
X017925Y007525D01*
Y007775D01*
D02*
G37*
G36*
X003756Y032395D02*
X003653Y032381D01*
X003557Y032341D01*
X003474Y032278D01*
X003411Y032195D01*
X003371Y032099D01*
X003357Y031996D01*
X003371Y031893D01*
X003411Y031797D01*
X003474Y031714D01*
X003557Y031651D01*
X003653Y031611D01*
X003756Y031597D01*
X003859Y031611D01*
X003955Y031651D01*
X004038Y031714D01*
X004101Y031797D01*
X004141Y031893D01*
X004155Y031996D01*
X004141Y032099D01*
X004101Y032195D01*
X004038Y032278D01*
X003955Y032341D01*
X003859Y032381D01*
X003756Y032395D01*
D02*
G37*
G36*
X004756D02*
X004653Y032381D01*
X004557Y032341D01*
X004474Y032278D01*
X004411Y032195D01*
X004371Y032099D01*
X004357Y031996D01*
X004371Y031893D01*
X004411Y031797D01*
X004474Y031714D01*
X004557Y031651D01*
X004653Y031611D01*
X004756Y031597D01*
X004859Y031611D01*
X004955Y031651D01*
X005038Y031714D01*
X005101Y031797D01*
X005141Y031893D01*
X005155Y031996D01*
X005141Y032099D01*
X005101Y032195D01*
X005038Y032278D01*
X004955Y032341D01*
X004859Y032381D01*
X004756Y032395D01*
D02*
G37*
G36*
X007756Y031395D02*
X007653Y031381D01*
X007557Y031341D01*
X007474Y031278D01*
X007411Y031195D01*
X007371Y031099D01*
X007357Y030996D01*
X007371Y030893D01*
X007411Y030797D01*
X007474Y030714D01*
X007557Y030651D01*
X007653Y030611D01*
X007756Y030597D01*
X007859Y030611D01*
X007955Y030651D01*
X008038Y030714D01*
X008101Y030797D01*
X008141Y030893D01*
X008155Y030996D01*
X008141Y031099D01*
X008101Y031195D01*
X008038Y031278D01*
X007955Y031341D01*
X007859Y031381D01*
X007756Y031395D01*
D02*
G37*
G36*
X005756D02*
X005653Y031381D01*
X005557Y031341D01*
X005474Y031278D01*
X005411Y031195D01*
X005371Y031099D01*
X005357Y030996D01*
X005371Y030893D01*
X005411Y030797D01*
X005474Y030714D01*
X005557Y030651D01*
X005653Y030611D01*
X005756Y030597D01*
X005859Y030611D01*
X005955Y030651D01*
X006038Y030714D01*
X006101Y030797D01*
X006141Y030893D01*
X006155Y030996D01*
X006141Y031099D01*
X006101Y031195D01*
X006038Y031278D01*
X005955Y031341D01*
X005859Y031381D01*
X005756Y031395D01*
D02*
G37*
G36*
X006756D02*
X006653Y031381D01*
X006557Y031341D01*
X006474Y031278D01*
X006411Y031195D01*
X006371Y031099D01*
X006357Y030996D01*
X006371Y030893D01*
X006411Y030797D01*
X006474Y030714D01*
X006557Y030651D01*
X006653Y030611D01*
X006756Y030597D01*
X006859Y030611D01*
X006955Y030651D01*
X007038Y030714D01*
X007101Y030797D01*
X007141Y030893D01*
X007155Y030996D01*
X007141Y031099D01*
X007101Y031195D01*
X007038Y031278D01*
X006955Y031341D01*
X006859Y031381D01*
X006756Y031395D01*
D02*
G37*
G36*
X017925Y008275D02*
X017898Y008266D01*
X017852Y008243D01*
X017809Y008214D01*
X017770Y008180D01*
X017736Y008141D01*
X017707Y008098D01*
X017684Y008052D01*
X017675Y008025D01*
X017925D01*
Y008275D01*
D02*
G37*
G36*
X018425Y007775D02*
X018175D01*
Y007525D01*
X018202Y007534D01*
X018248Y007557D01*
X018291Y007586D01*
X018330Y007620D01*
X018364Y007659D01*
X018393Y007702D01*
X018416Y007748D01*
X018425Y007775D01*
D02*
G37*
G36*
X018175Y008275D02*
Y008025D01*
X018425D01*
X018416Y008052D01*
X018393Y008098D01*
X018364Y008141D01*
X018330Y008180D01*
X018291Y008214D01*
X018248Y008243D01*
X018202Y008266D01*
X018175Y008275D01*
D02*
G37*
G36*
X005756Y032395D02*
X005653Y032381D01*
X005557Y032341D01*
X005474Y032278D01*
X005411Y032195D01*
X005371Y032099D01*
X005357Y031996D01*
X005371Y031893D01*
X005411Y031797D01*
X005474Y031714D01*
X005557Y031651D01*
X005653Y031611D01*
X005756Y031597D01*
X005859Y031611D01*
X005955Y031651D01*
X006038Y031714D01*
X006101Y031797D01*
X006141Y031893D01*
X006155Y031996D01*
X006141Y032099D01*
X006101Y032195D01*
X006038Y032278D01*
X005955Y032341D01*
X005859Y032381D01*
X005756Y032395D01*
D02*
G37*
G36*
X015550Y011498D02*
X015503Y011494D01*
X015458Y011483D01*
X015415Y011465D01*
X015375Y011441D01*
X015339Y011411D01*
X015309Y011375D01*
X015285Y011335D01*
X015267Y011292D01*
X015256Y011247D01*
X015252Y011200D01*
X015256Y011153D01*
X015267Y011108D01*
X015285Y011065D01*
X015309Y011025D01*
X015339Y010989D01*
X015375Y010959D01*
X015415Y010935D01*
X015458Y010917D01*
X015503Y010906D01*
X015550Y010902D01*
X015596Y010906D01*
X016174Y010327D01*
Y008640D01*
X016139Y008611D01*
X016109Y008575D01*
X016085Y008535D01*
X016067Y008492D01*
X016056Y008447D01*
X016052Y008400D01*
X016056Y008353D01*
X016067Y008308D01*
X016085Y008265D01*
X016109Y008225D01*
X016139Y008189D01*
X016175Y008159D01*
X016215Y008135D01*
X016258Y008117D01*
X016303Y008106D01*
X016350Y008102D01*
X016397Y008106D01*
X016442Y008117D01*
X016485Y008135D01*
X016525Y008159D01*
X016561Y008189D01*
X016591Y008225D01*
X016615Y008265D01*
X016633Y008308D01*
X016644Y008353D01*
X016648Y008400D01*
X016644Y008447D01*
X016633Y008492D01*
X016615Y008535D01*
X016591Y008575D01*
X016561Y008611D01*
X016526Y008640D01*
Y010400D01*
X016526Y010400D01*
X016522Y010434D01*
X016512Y010467D01*
X016496Y010498D01*
X016474Y010524D01*
X015844Y011155D01*
X015848Y011200D01*
X015844Y011247D01*
X015833Y011292D01*
X015815Y011335D01*
X015791Y011375D01*
X015761Y011411D01*
X015725Y011441D01*
X015685Y011465D01*
X015642Y011483D01*
X015597Y011494D01*
X015550Y011498D01*
D02*
G37*
G36*
X007539Y034875D02*
X007441Y034862D01*
X007350Y034824D01*
X007272Y034764D01*
X007211Y034685D01*
X007173Y034594D01*
X007161Y034496D01*
X007173Y034398D01*
X007211Y034307D01*
X007272Y034228D01*
X007350Y034168D01*
X007441Y034130D01*
X007539Y034117D01*
X007637Y034130D01*
X007729Y034168D01*
X007807Y034228D01*
X007867Y034307D01*
X007905Y034398D01*
X007918Y034496D01*
X007905Y034594D01*
X007867Y034685D01*
X007807Y034764D01*
X007729Y034824D01*
X007637Y034862D01*
X007539Y034875D01*
D02*
G37*
G36*
X008225Y003475D02*
X007700D01*
Y002750D01*
X008225D01*
Y003475D01*
D02*
G37*
G36*
X011022Y002438D02*
X010970Y002435D01*
X010919Y002425D01*
X010870Y002408D01*
X010824Y002385D01*
X010781Y002356D01*
X010742Y002322D01*
X010707Y002283D01*
X010679Y002240D01*
X010656Y002194D01*
X010639Y002145D01*
X010629Y002094D01*
X010626Y002042D01*
X010629Y001990D01*
X010639Y001940D01*
X010656Y001891D01*
X010679Y001844D01*
X010707Y001801D01*
X010742Y001762D01*
X010781Y001728D01*
X010824Y001699D01*
X010870Y001676D01*
X010919Y001660D01*
X010970Y001649D01*
X011022Y001646D01*
X011073Y001649D01*
X011124Y001660D01*
X011173Y001676D01*
X011220Y001699D01*
X011263Y001728D01*
X011302Y001762D01*
X011336Y001801D01*
X011365Y001844D01*
X011388Y001891D01*
X011404Y001940D01*
X011414Y001990D01*
X011418Y002042D01*
X011414Y002094D01*
X011404Y002145D01*
X011388Y002194D01*
X011365Y002240D01*
X011336Y002283D01*
X011302Y002322D01*
X011263Y002356D01*
X011220Y002385D01*
X011173Y002408D01*
X011124Y002425D01*
X011073Y002435D01*
X011022Y002438D01*
D02*
G37*
G36*
X009000Y003475D02*
X008475D01*
Y002750D01*
X009000D01*
Y003475D01*
D02*
G37*
G36*
X016941Y004563D02*
X016872Y004559D01*
X016805Y004547D01*
X016739Y004528D01*
X016675Y004502D01*
X016615Y004469D01*
X016559Y004429D01*
X016508Y004383D01*
X016462Y004332D01*
X016422Y004276D01*
X016389Y004216D01*
X016363Y004152D01*
X016344Y004086D01*
X016332Y004019D01*
X016328Y003950D01*
X016332Y003881D01*
X016344Y003814D01*
X016363Y003748D01*
X016389Y003684D01*
X016422Y003624D01*
X016462Y003568D01*
X016508Y003517D01*
X016559Y003471D01*
X016615Y003431D01*
X016675Y003398D01*
X016739Y003372D01*
X016805Y003353D01*
X016872Y003341D01*
X016941Y003337D01*
X017010Y003341D01*
X017077Y003353D01*
X017143Y003372D01*
X017207Y003398D01*
X017267Y003431D01*
X017323Y003471D01*
X017374Y003517D01*
X017420Y003568D01*
X017460Y003624D01*
X017493Y003684D01*
X017519Y003748D01*
X017538Y003814D01*
X017550Y003881D01*
X017554Y003950D01*
X017550Y004019D01*
X017538Y004086D01*
X017519Y004152D01*
X017493Y004216D01*
X017460Y004276D01*
X017420Y004332D01*
X017374Y004383D01*
X017323Y004429D01*
X017267Y004469D01*
X017207Y004502D01*
X017143Y004528D01*
X017077Y004547D01*
X017010Y004559D01*
X016941Y004563D01*
D02*
G37*
G36*
X006291D02*
X006222Y004559D01*
X006155Y004547D01*
X006089Y004528D01*
X006025Y004502D01*
X005965Y004469D01*
X005909Y004429D01*
X005858Y004383D01*
X005812Y004332D01*
X005772Y004276D01*
X005739Y004216D01*
X005713Y004152D01*
X005694Y004086D01*
X005682Y004019D01*
X005678Y003950D01*
X005682Y003881D01*
X005694Y003814D01*
X005713Y003748D01*
X005739Y003684D01*
X005772Y003624D01*
X005812Y003568D01*
X005858Y003517D01*
X005909Y003471D01*
X005965Y003431D01*
X006025Y003398D01*
X006089Y003372D01*
X006155Y003353D01*
X006222Y003341D01*
X006291Y003337D01*
X006360Y003341D01*
X006427Y003353D01*
X006493Y003372D01*
X006557Y003398D01*
X006617Y003431D01*
X006673Y003471D01*
X006724Y003517D01*
X006770Y003568D01*
X006810Y003624D01*
X006843Y003684D01*
X006869Y003748D01*
X006888Y003814D01*
X006900Y003881D01*
X006904Y003950D01*
X006900Y004019D01*
X006888Y004086D01*
X006869Y004152D01*
X006843Y004216D01*
X006810Y004276D01*
X006770Y004332D01*
X006724Y004383D01*
X006673Y004429D01*
X006617Y004469D01*
X006557Y004502D01*
X006493Y004528D01*
X006427Y004547D01*
X006360Y004559D01*
X006291Y004563D01*
D02*
G37*
G36*
X010412Y000933D02*
X010162D01*
Y000683D01*
X010189Y000692D01*
X010235Y000715D01*
X010279Y000744D01*
X010317Y000778D01*
X010352Y000817D01*
X010380Y000860D01*
X010403Y000906D01*
X010412Y000933D01*
D02*
G37*
G36*
X009912D02*
X009662D01*
X009671Y000906D01*
X009694Y000860D01*
X009723Y000817D01*
X009757Y000778D01*
X009796Y000744D01*
X009839Y000715D01*
X009886Y000692D01*
X009912Y000683D01*
Y000933D01*
D02*
G37*
G36*
Y001433D02*
X009886Y001424D01*
X009839Y001401D01*
X009796Y001372D01*
X009757Y001338D01*
X009723Y001299D01*
X009694Y001256D01*
X009671Y001209D01*
X009662Y001183D01*
X009912D01*
Y001269D01*
X009831D01*
X009856Y001294D01*
X009878Y001320D01*
X009898Y001346D01*
X009912Y001367D01*
Y001433D01*
D02*
G37*
G36*
X009053Y002438D02*
X009001Y002435D01*
X008951Y002425D01*
X008902Y002408D01*
X008855Y002385D01*
X008812Y002356D01*
X008773Y002322D01*
X008739Y002283D01*
X008710Y002240D01*
X008687Y002194D01*
X008671Y002145D01*
X008660Y002094D01*
X008657Y002042D01*
X008660Y001990D01*
X008671Y001940D01*
X008687Y001891D01*
X008710Y001844D01*
X008739Y001801D01*
X008773Y001762D01*
X008812Y001728D01*
X008855Y001699D01*
X008902Y001676D01*
X008951Y001660D01*
X009001Y001649D01*
X009053Y001646D01*
X009105Y001649D01*
X009156Y001660D01*
X009205Y001676D01*
X009251Y001699D01*
X009294Y001728D01*
X009333Y001762D01*
X009367Y001801D01*
X009396Y001844D01*
X009419Y001891D01*
X009436Y001940D01*
X009446Y001990D01*
X009449Y002042D01*
X009446Y002094D01*
X009436Y002145D01*
X009419Y002194D01*
X009396Y002240D01*
X009367Y002283D01*
X009333Y002322D01*
X009294Y002356D01*
X009251Y002385D01*
X009205Y002408D01*
X009156Y002425D01*
X009105Y002435D01*
X009053Y002438D01*
D02*
G37*
G36*
X010162Y001433D02*
Y001367D01*
X010177Y001346D01*
X010197Y001320D01*
X010219Y001294D01*
X010244Y001269D01*
X010162D01*
Y001183D01*
X010412D01*
X010403Y001209D01*
X010380Y001256D01*
X010352Y001299D01*
X010317Y001338D01*
X010279Y001372D01*
X010235Y001401D01*
X010189Y001424D01*
X010162Y001433D01*
D02*
G37*
G36*
X014599Y005127D02*
X014467D01*
Y004975D01*
X014599D01*
Y005127D01*
D02*
G37*
G36*
Y004725D02*
X014467D01*
Y004573D01*
X014599D01*
Y004725D01*
D02*
G37*
G36*
X009539Y034875D02*
X009441Y034862D01*
X009350Y034824D01*
X009272Y034764D01*
X009211Y034685D01*
X009173Y034594D01*
X009161Y034496D01*
X009173Y034398D01*
X009211Y034307D01*
X009272Y034228D01*
X009350Y034168D01*
X009441Y034130D01*
X009539Y034117D01*
X009637Y034130D01*
X009729Y034168D01*
X009807Y034228D01*
X009867Y034307D01*
X009905Y034398D01*
X009918Y034496D01*
X009905Y034594D01*
X009867Y034685D01*
X009807Y034764D01*
X009729Y034824D01*
X009637Y034862D01*
X009539Y034875D01*
D02*
G37*
G36*
X008539D02*
X008441Y034862D01*
X008350Y034824D01*
X008271Y034764D01*
X008211Y034685D01*
X008173Y034594D01*
X008161Y034496D01*
X008173Y034398D01*
X008211Y034307D01*
X008271Y034228D01*
X008350Y034168D01*
X008441Y034130D01*
X008539Y034117D01*
X008637Y034130D01*
X008729Y034168D01*
X008807Y034228D01*
X008867Y034307D01*
X008905Y034398D01*
X008918Y034496D01*
X008905Y034594D01*
X008867Y034685D01*
X008807Y034764D01*
X008729Y034824D01*
X008637Y034862D01*
X008539Y034875D01*
D02*
G37*
G36*
X012133Y007533D02*
X009020D01*
Y005525D01*
X008881Y005468D01*
X008772Y005577D01*
X008745Y005599D01*
X008715Y005615D01*
X008682Y005625D01*
X008648Y005628D01*
X008590Y005739D01*
X007642D01*
Y005165D01*
X008590D01*
X008590Y005165D01*
Y005165D01*
X008724Y005127D01*
X009426Y004426D01*
X009426Y004426D01*
X009452Y004404D01*
X009483Y004388D01*
X009516Y004378D01*
X009550Y004374D01*
X009550Y004374D01*
X009910D01*
X009939Y004339D01*
X009975Y004309D01*
X010015Y004285D01*
X010058Y004267D01*
X010103Y004256D01*
X010150Y004252D01*
X010197Y004256D01*
X010242Y004267D01*
X010285Y004285D01*
X010325Y004309D01*
X010361Y004339D01*
X010391Y004375D01*
X010415Y004415D01*
X010433Y004458D01*
X010444Y004503D01*
X010448Y004550D01*
X010444Y004597D01*
X010433Y004642D01*
X010415Y004685D01*
X010391Y004725D01*
X010361Y004761D01*
X010325Y004791D01*
X010285Y004815D01*
X010242Y004833D01*
X010197Y004844D01*
X010150Y004848D01*
X010103Y004844D01*
X010058Y004833D01*
X010015Y004815D01*
X009975Y004791D01*
X009939Y004761D01*
X009910Y004726D01*
X009623D01*
X009320Y005029D01*
X009377Y005167D01*
X010534D01*
X010570Y005139D01*
X010649Y005050D01*
X010649Y005017D01*
Y002800D01*
X010653Y002774D01*
X010663Y002750D01*
X010679Y002729D01*
X010700Y002713D01*
X010724Y002703D01*
X010750Y002699D01*
X012500D01*
X012526Y002703D01*
X012550Y002713D01*
X012571Y002729D01*
X012587Y002750D01*
X012597Y002774D01*
X012601Y002800D01*
Y003449D01*
X012906Y003474D01*
X013248D01*
X013252Y003471D01*
X013308Y003431D01*
X013368Y003398D01*
X013431Y003372D01*
X013498Y003353D01*
X013565Y003341D01*
X013634Y003337D01*
X013702Y003341D01*
X013770Y003353D01*
X013836Y003372D01*
X013900Y003398D01*
X013960Y003431D01*
X014016Y003471D01*
X014067Y003517D01*
X014113Y003568D01*
X014153Y003624D01*
X014186Y003684D01*
X014212Y003748D01*
X014231Y003814D01*
X014243Y003881D01*
X014247Y003950D01*
X014243Y004019D01*
X014231Y004086D01*
X014212Y004152D01*
X014186Y004216D01*
X014153Y004276D01*
X014113Y004332D01*
X014067Y004383D01*
X014016Y004429D01*
X013960Y004469D01*
X013900Y004502D01*
X013836Y004528D01*
X013770Y004547D01*
X013702Y004559D01*
X013634Y004563D01*
X013565Y004559D01*
X013498Y004547D01*
X013431Y004528D01*
X013368Y004502D01*
X013308Y004469D01*
X013252Y004429D01*
X013248Y004426D01*
X012601D01*
Y005050D01*
X012597Y005076D01*
X012587Y005100D01*
X012571Y005121D01*
X012550Y005137D01*
X012526Y005147D01*
X012500Y005151D01*
X012276D01*
X012133Y005167D01*
X012133Y005423D01*
X012148Y005444D01*
X012207Y005488D01*
X012299Y005531D01*
X012426Y005570D01*
X012582Y005602D01*
X013039Y005640D01*
X013248D01*
X013252Y005636D01*
X013308Y005597D01*
X013368Y005563D01*
X013431Y005537D01*
X013498Y005518D01*
X013565Y005506D01*
X013634Y005503D01*
X013702Y005506D01*
X013770Y005518D01*
X013836Y005537D01*
X013900Y005563D01*
X013960Y005597D01*
X014016Y005636D01*
X014067Y005682D01*
X014113Y005733D01*
X014153Y005789D01*
X014186Y005849D01*
X014212Y005913D01*
X014231Y005979D01*
X014243Y006047D01*
X014247Y006115D01*
X014243Y006184D01*
X014231Y006252D01*
X014212Y006318D01*
X014186Y006381D01*
X014153Y006441D01*
X014113Y006497D01*
X014067Y006549D01*
X014016Y006594D01*
X013960Y006634D01*
X013900Y006667D01*
X013836Y006694D01*
X013770Y006713D01*
X013702Y006724D01*
X013634Y006728D01*
X013565Y006724D01*
X013498Y006713D01*
X013431Y006694D01*
X013368Y006667D01*
X013308Y006634D01*
X013252Y006594D01*
X013248Y006591D01*
X012968D01*
X012774Y006603D01*
X012584Y006629D01*
X012426Y006661D01*
X012299Y006700D01*
X012207Y006743D01*
X012148Y006786D01*
X012133Y006808D01*
Y007533D01*
D02*
G37*
G36*
X009000Y004450D02*
X008475D01*
Y003725D01*
X009000D01*
Y004450D01*
D02*
G37*
G36*
X008225D02*
X007700D01*
Y003725D01*
X008225D01*
Y004450D01*
D02*
G37*
G36*
X012539Y034875D02*
X012441Y034862D01*
X012350Y034824D01*
X012271Y034764D01*
X012211Y034685D01*
X012173Y034594D01*
X012161Y034496D01*
X012173Y034398D01*
X012211Y034307D01*
X012271Y034228D01*
X012350Y034168D01*
X012441Y034130D01*
X012539Y034117D01*
X012637Y034130D01*
X012729Y034168D01*
X012807Y034228D01*
X012867Y034307D01*
X012905Y034398D01*
X012918Y034496D01*
X012905Y034594D01*
X012867Y034685D01*
X012807Y034764D01*
X012729Y034824D01*
X012637Y034862D01*
X012539Y034875D01*
D02*
G37*
G36*
X010539D02*
X010441Y034862D01*
X010350Y034824D01*
X010272Y034764D01*
X010211Y034685D01*
X010173Y034594D01*
X010161Y034496D01*
X010173Y034398D01*
X010211Y034307D01*
X010272Y034228D01*
X010350Y034168D01*
X010441Y034130D01*
X010539Y034117D01*
X010637Y034130D01*
X010729Y034168D01*
X010807Y034228D01*
X010867Y034307D01*
X010905Y034398D01*
X010918Y034496D01*
X010905Y034594D01*
X010867Y034685D01*
X010807Y034764D01*
X010729Y034824D01*
X010637Y034862D01*
X010539Y034875D01*
D02*
G37*
G36*
X011539D02*
X011441Y034862D01*
X011350Y034824D01*
X011272Y034764D01*
X011211Y034685D01*
X011173Y034594D01*
X011161Y034496D01*
X011173Y034398D01*
X011211Y034307D01*
X011272Y034228D01*
X011350Y034168D01*
X011441Y034130D01*
X011539Y034117D01*
X011637Y034130D01*
X011729Y034168D01*
X011807Y034228D01*
X011867Y034307D01*
X011905Y034398D01*
X011918Y034496D01*
X011905Y034594D01*
X011867Y034685D01*
X011807Y034764D01*
X011729Y034824D01*
X011637Y034862D01*
X011539Y034875D01*
D02*
G37*
G36*
X004756Y031395D02*
X004653Y031381D01*
X004557Y031341D01*
X004474Y031278D01*
X004411Y031195D01*
X004371Y031099D01*
X004357Y030996D01*
X004371Y030893D01*
X004411Y030797D01*
X004474Y030714D01*
X004557Y030651D01*
X004653Y030611D01*
X004756Y030597D01*
X004859Y030611D01*
X004955Y030651D01*
X005038Y030714D01*
X005101Y030797D01*
X005141Y030893D01*
X005155Y030996D01*
X005141Y031099D01*
X005101Y031195D01*
X005038Y031278D01*
X004955Y031341D01*
X004859Y031381D01*
X004756Y031395D01*
D02*
G37*
G36*
X003151Y022975D02*
X002881D01*
Y022705D01*
X003151D01*
Y022975D01*
D02*
G37*
G36*
X007756Y023496D02*
X007704Y023493D01*
X007653Y023483D01*
X007604Y023466D01*
X007558Y023443D01*
X007515Y023414D01*
X007476Y023380D01*
X007442Y023341D01*
X007413Y023298D01*
X007390Y023252D01*
X007373Y023203D01*
X007363Y023152D01*
X007360Y023100D01*
X007363Y023048D01*
X007373Y022997D01*
X007390Y022948D01*
X007413Y022902D01*
X007442Y022859D01*
X007476Y022820D01*
X007515Y022786D01*
X007558Y022757D01*
X007604Y022734D01*
X007653Y022717D01*
X007704Y022707D01*
X007756Y022704D01*
X007808Y022707D01*
X007858Y022717D01*
X007908Y022734D01*
X007954Y022757D01*
X007997Y022786D01*
X008036Y022820D01*
X008070Y022859D01*
X008099Y022902D01*
X008122Y022948D01*
X008139Y022997D01*
X008149Y023048D01*
X008152Y023100D01*
X008149Y023152D01*
X008139Y023203D01*
X008122Y023252D01*
X008099Y023298D01*
X008070Y023341D01*
X008036Y023380D01*
X007997Y023414D01*
X007954Y023443D01*
X007908Y023466D01*
X007858Y023483D01*
X007808Y023493D01*
X007756Y023496D01*
D02*
G37*
G36*
X002631Y022975D02*
X002463D01*
Y022969D01*
X002462Y022975D01*
X002361D01*
Y022705D01*
X002631D01*
Y022975D01*
D02*
G37*
G36*
X003151Y023495D02*
X002881D01*
Y023225D01*
X003151D01*
Y023495D01*
D02*
G37*
G36*
X002631D02*
X002361D01*
Y023225D01*
X002462D01*
X002463Y023231D01*
Y023225D01*
X002631D01*
Y023495D01*
D02*
G37*
G36*
X006756Y023496D02*
X006704Y023493D01*
X006653Y023483D01*
X006604Y023466D01*
X006558Y023443D01*
X006515Y023414D01*
X006476Y023380D01*
X006442Y023341D01*
X006413Y023298D01*
X006390Y023252D01*
X006373Y023203D01*
X006363Y023152D01*
X006360Y023100D01*
X006363Y023048D01*
X006373Y022997D01*
X006390Y022948D01*
X006413Y022902D01*
X006442Y022859D01*
X006476Y022820D01*
X006515Y022786D01*
X006558Y022757D01*
X006604Y022734D01*
X006653Y022717D01*
X006704Y022707D01*
X006756Y022704D01*
X006808Y022707D01*
X006858Y022717D01*
X006908Y022734D01*
X006954Y022757D01*
X006997Y022786D01*
X007036Y022820D01*
X007070Y022859D01*
X007099Y022902D01*
X007122Y022948D01*
X007139Y022997D01*
X007149Y023048D01*
X007152Y023100D01*
X007149Y023152D01*
X007139Y023203D01*
X007122Y023252D01*
X007099Y023298D01*
X007070Y023341D01*
X007036Y023380D01*
X006997Y023414D01*
X006954Y023443D01*
X006908Y023466D01*
X006858Y023483D01*
X006808Y023493D01*
X006756Y023496D01*
D02*
G37*
G36*
X007756Y022496D02*
X007704Y022493D01*
X007653Y022483D01*
X007604Y022466D01*
X007558Y022443D01*
X007515Y022414D01*
X007476Y022380D01*
X007442Y022341D01*
X007413Y022298D01*
X007390Y022252D01*
X007373Y022203D01*
X007363Y022152D01*
X007361Y022114D01*
X007325Y022071D01*
X007249Y022008D01*
X007149Y022048D01*
X007152Y022100D01*
X007149Y022152D01*
X007139Y022203D01*
X007122Y022252D01*
X007099Y022298D01*
X007070Y022341D01*
X007036Y022380D01*
X006997Y022414D01*
X006954Y022443D01*
X006908Y022466D01*
X006858Y022483D01*
X006808Y022493D01*
X006756Y022496D01*
X006704Y022493D01*
X006653Y022483D01*
X006604Y022466D01*
X006558Y022443D01*
X006515Y022414D01*
X006476Y022380D01*
X006442Y022341D01*
X006413Y022298D01*
X006390Y022252D01*
X006373Y022203D01*
X006363Y022152D01*
X006360Y022100D01*
X006363Y022048D01*
X006373Y021997D01*
X006390Y021948D01*
X006413Y021902D01*
X006442Y021859D01*
X006476Y021820D01*
X006511Y021789D01*
X006516Y021784D01*
X006523Y021772D01*
X006542Y021658D01*
X006533Y021602D01*
X006490Y021560D01*
X006467Y021533D01*
X006449Y021502D01*
X006435Y021470D01*
X006435Y021469D01*
X006432D01*
Y021455D01*
X006427Y021435D01*
X006424Y021400D01*
Y021013D01*
X006427Y020978D01*
X006432Y020958D01*
Y020953D01*
X006430Y020949D01*
X006395Y020912D01*
X006291Y020849D01*
X006282Y020848D01*
X006250Y020851D01*
X005511D01*
X005444Y020947D01*
X005425Y021001D01*
X005426Y021013D01*
Y021656D01*
X005425Y021670D01*
X005428Y021675D01*
X005479Y021718D01*
X005531Y021744D01*
X005562Y021755D01*
X005604Y021734D01*
X005653Y021717D01*
X005704Y021707D01*
X005756Y021704D01*
X005808Y021707D01*
X005858Y021717D01*
X005907Y021734D01*
X005954Y021757D01*
X005997Y021786D01*
X006036Y021820D01*
X006070Y021859D01*
X006099Y021902D01*
X006122Y021948D01*
X006139Y021997D01*
X006149Y022048D01*
X006152Y022100D01*
X006149Y022152D01*
X006139Y022203D01*
X006122Y022252D01*
X006099Y022298D01*
X006070Y022341D01*
X006036Y022380D01*
X005997Y022414D01*
X005954Y022443D01*
X005907Y022466D01*
X005858Y022483D01*
X005808Y022493D01*
X005756Y022496D01*
X005704Y022493D01*
X005653Y022483D01*
X005604Y022466D01*
X005558Y022443D01*
X005515Y022414D01*
X005476Y022380D01*
X005442Y022341D01*
X005413Y022298D01*
X005390Y022252D01*
X005373Y022203D01*
X005363Y022152D01*
X005360Y022100D01*
X005363Y022048D01*
X005263Y022008D01*
X005187Y022071D01*
X005151Y022114D01*
X005149Y022152D01*
X005139Y022203D01*
X005122Y022252D01*
X005099Y022298D01*
X005070Y022341D01*
X005036Y022380D01*
X004997Y022414D01*
X004954Y022443D01*
X004908Y022466D01*
X004858Y022483D01*
X004808Y022493D01*
X004756Y022496D01*
X004704Y022493D01*
X004653Y022483D01*
X004604Y022466D01*
X004558Y022443D01*
X004515Y022414D01*
X004476Y022380D01*
X004442Y022341D01*
X004413Y022298D01*
X004390Y022252D01*
X004373Y022203D01*
X004363Y022152D01*
X004360Y022100D01*
X004363Y022048D01*
X004373Y021997D01*
X004390Y021948D01*
X004413Y021902D01*
X004442Y021859D01*
X004476Y021820D01*
X004515Y021786D01*
X004558Y021757D01*
X004604Y021734D01*
X004653Y021717D01*
X004704Y021707D01*
X004756Y021704D01*
X004808Y021707D01*
X004826Y021711D01*
X004974Y021562D01*
Y021013D01*
X004975Y021001D01*
X004956Y020947D01*
X004889Y020851D01*
X004071D01*
X004068Y020854D01*
X003987Y020971D01*
X003980Y021001D01*
X003982Y021019D01*
Y021775D01*
X003997Y021786D01*
X004036Y021820D01*
X004070Y021859D01*
X004099Y021902D01*
X004122Y021948D01*
X004139Y021997D01*
X004149Y022048D01*
X004152Y022100D01*
X004149Y022152D01*
X004139Y022203D01*
X004122Y022252D01*
X004099Y022298D01*
X004070Y022341D01*
X004036Y022380D01*
X003997Y022414D01*
X003954Y022443D01*
X003907Y022466D01*
X003858Y022483D01*
X003808Y022493D01*
X003756Y022496D01*
X003704Y022493D01*
X003653Y022483D01*
X003604Y022466D01*
X003558Y022443D01*
X003515Y022414D01*
X003476Y022380D01*
X003442Y022341D01*
X003413Y022298D01*
X003390Y022252D01*
X003373Y022203D01*
X003363Y022152D01*
X003360Y022100D01*
X003363Y022048D01*
X003373Y021997D01*
X003390Y021948D01*
X003413Y021902D01*
X003442Y021859D01*
X003476Y021820D01*
X003515Y021786D01*
X003530Y021775D01*
Y021019D01*
X003532Y020998D01*
Y020851D01*
X002904D01*
X002440Y021315D01*
X002433Y021342D01*
X002426Y021360D01*
Y021640D01*
X002433Y021658D01*
X002434Y021660D01*
X002498Y021710D01*
X002520Y021720D01*
X002597Y021738D01*
X002604Y021734D01*
X002653Y021717D01*
X002704Y021707D01*
X002756Y021704D01*
X002808Y021707D01*
X002858Y021717D01*
X002907Y021734D01*
X002954Y021757D01*
X002997Y021786D01*
X003036Y021820D01*
X003070Y021859D01*
X003099Y021902D01*
X003122Y021948D01*
X003139Y021997D01*
X003149Y022048D01*
X003152Y022100D01*
X003149Y022152D01*
X003139Y022203D01*
X003122Y022252D01*
X003099Y022298D01*
X003070Y022341D01*
X003036Y022380D01*
X002997Y022414D01*
X002954Y022443D01*
X002907Y022466D01*
X002858Y022483D01*
X002808Y022493D01*
X002756Y022496D01*
X002704Y022493D01*
X002653Y022483D01*
X002604Y022466D01*
X002558Y022443D01*
X002515Y022414D01*
X002476Y022380D01*
X002442Y022341D01*
X002413Y022298D01*
X002390Y022252D01*
X002373Y022203D01*
X002363Y022152D01*
X002363Y022143D01*
X002352Y022126D01*
X002285Y022069D01*
X002213Y022040D01*
X002197Y022044D01*
X002150Y022048D01*
X002103Y022044D01*
X002058Y022033D01*
X002015Y022015D01*
X001975Y021991D01*
X001939Y021961D01*
X001909Y021925D01*
X001885Y021885D01*
X001867Y021842D01*
X001856Y021797D01*
X001852Y021750D01*
X001856Y021703D01*
X001867Y021658D01*
X001874Y021640D01*
Y021360D01*
X001867Y021342D01*
X001856Y021297D01*
X001852Y021250D01*
X001856Y021203D01*
X001867Y021158D01*
X001885Y021115D01*
X001909Y021075D01*
X001939Y021039D01*
X001975Y021009D01*
X002015Y020985D01*
X002058Y020967D01*
X002085Y020960D01*
X002623Y020423D01*
X002653Y020397D01*
X002686Y020377D01*
X002723Y020361D01*
X002761Y020352D01*
X002800Y020349D01*
X003150D01*
Y020187D01*
Y019698D01*
X003153Y019662D01*
X003161Y019628D01*
X003175Y019595D01*
X003193Y019565D01*
X003216Y019538D01*
X003266Y019488D01*
Y019223D01*
X003781D01*
Y019223D01*
X003817D01*
Y019223D01*
X004153D01*
X004600Y018776D01*
X004600Y018776D01*
X004627Y018754D01*
X004658Y018738D01*
X004690Y018728D01*
X004725Y018724D01*
X007550D01*
X007550Y018724D01*
X007584Y018728D01*
X007617Y018738D01*
X007648Y018754D01*
X007674Y018776D01*
X008805Y019906D01*
X008850Y019902D01*
X008897Y019906D01*
X008942Y019917D01*
X008985Y019935D01*
X009025Y019959D01*
X009061Y019989D01*
X009091Y020025D01*
X009115Y020065D01*
X009133Y020108D01*
X009144Y020153D01*
X009148Y020200D01*
X009144Y020247D01*
X009133Y020292D01*
X009115Y020335D01*
X009091Y020375D01*
X009061Y020411D01*
X009025Y020441D01*
X008985Y020465D01*
X008942Y020483D01*
X008897Y020494D01*
X008850Y020498D01*
X008803Y020494D01*
X008758Y020483D01*
X008715Y020465D01*
X008675Y020441D01*
X008639Y020411D01*
X008634Y020405D01*
X008562Y020399D01*
X008541Y020402D01*
X008467Y020431D01*
X008465Y020435D01*
X008441Y020475D01*
X008411Y020511D01*
X008375Y020541D01*
X008335Y020565D01*
X008292Y020583D01*
X008247Y020594D01*
X008183Y020631D01*
X008148Y020700D01*
X008144Y020747D01*
X008133Y020792D01*
X008115Y020835D01*
X008091Y020875D01*
X008061Y020911D01*
X008025Y020941D01*
X007985Y020965D01*
X007942Y020983D01*
X007897Y020994D01*
X007850Y020998D01*
X007803Y020994D01*
X007758Y020983D01*
X007715Y020965D01*
X007675Y020941D01*
X007639Y020911D01*
X007610Y020876D01*
X007300D01*
X007266Y020872D01*
X007233Y020862D01*
X007202Y020846D01*
X007176Y020824D01*
X007176Y020824D01*
X006900Y020548D01*
X006878Y020522D01*
X006862Y020491D01*
X006852Y020458D01*
X006850Y020443D01*
X006806D01*
Y019840D01*
X006682Y019777D01*
X006516D01*
X006502Y019791D01*
Y020187D01*
Y020574D01*
X006500Y020593D01*
X006501Y020600D01*
X006500Y020607D01*
X006550Y020699D01*
X006583Y020736D01*
X006618Y020757D01*
X006868D01*
Y020958D01*
X006873Y020978D01*
X006876Y021013D01*
Y021274D01*
X007156D01*
X007191Y021277D01*
X007226Y021285D01*
X007258Y021299D01*
X007289Y021317D01*
X007315Y021340D01*
X007686Y021711D01*
X007704Y021707D01*
X007756Y021704D01*
X007808Y021707D01*
X007858Y021717D01*
X007908Y021734D01*
X007954Y021757D01*
X007997Y021786D01*
X008036Y021820D01*
X008070Y021859D01*
X008099Y021902D01*
X008122Y021948D01*
X008139Y021997D01*
X008149Y022048D01*
X008152Y022100D01*
X008149Y022152D01*
X008139Y022203D01*
X008122Y022252D01*
X008099Y022298D01*
X008070Y022341D01*
X008036Y022380D01*
X007997Y022414D01*
X007954Y022443D01*
X007908Y022466D01*
X007858Y022483D01*
X007808Y022493D01*
X007756Y022496D01*
D02*
G37*
G36*
X012450Y022048D02*
X012403Y022044D01*
X012358Y022033D01*
X012315Y022015D01*
X012275Y021991D01*
X012239Y021961D01*
X012209Y021925D01*
X012185Y021885D01*
X012167Y021842D01*
X012156Y021797D01*
X012152Y021750D01*
X012156Y021704D01*
X011868Y021417D01*
X011846Y021390D01*
X011830Y021360D01*
X011820Y021327D01*
X011817Y021293D01*
X011817Y021293D01*
Y018148D01*
X011782Y018118D01*
X011752Y018082D01*
X011727Y018043D01*
X011709Y017999D01*
X011698Y017954D01*
X011695Y017907D01*
X011698Y017861D01*
X011709Y017815D01*
X011727Y017772D01*
X011752Y017732D01*
X011782Y017697D01*
X011818Y017667D01*
X011857Y017642D01*
X011901Y017624D01*
X011946Y017613D01*
X011993Y017610D01*
X012039Y017613D01*
X012085Y017624D01*
X012128Y017642D01*
X012168Y017667D01*
X012203Y017697D01*
X012233Y017732D01*
X012258Y017772D01*
X012276Y017815D01*
X012287Y017861D01*
X012290Y017907D01*
X012287Y017954D01*
X012276Y017999D01*
X012271Y018011D01*
X012272Y018018D01*
X012318Y018105D01*
X012366Y018154D01*
X012390Y018156D01*
X012435Y018167D01*
X012478Y018185D01*
X012518Y018209D01*
X012554Y018239D01*
X012584Y018275D01*
X012608Y018315D01*
X012626Y018358D01*
X012637Y018403D01*
X012641Y018450D01*
X012637Y018497D01*
X012626Y018542D01*
X012608Y018585D01*
X012584Y018625D01*
X012554Y018661D01*
X012518Y018691D01*
X012504Y018700D01*
Y019277D01*
X012548Y019320D01*
X012654Y019368D01*
X012658Y019367D01*
X012703Y019356D01*
X012750Y019352D01*
X012797Y019356D01*
X012842Y019367D01*
X012885Y019385D01*
X012925Y019409D01*
X012961Y019439D01*
X012990Y019474D01*
X013210D01*
X013239Y019439D01*
X013275Y019409D01*
X013315Y019385D01*
X013358Y019367D01*
X013403Y019356D01*
X013450Y019352D01*
X013497Y019356D01*
X013542Y019367D01*
X013585Y019385D01*
X013625Y019409D01*
X013661Y019439D01*
X013691Y019475D01*
X013715Y019515D01*
X013733Y019558D01*
X013744Y019603D01*
X013748Y019650D01*
X013744Y019697D01*
X013733Y019742D01*
X013715Y019785D01*
X013691Y019825D01*
X013661Y019861D01*
X013625Y019891D01*
X013585Y019915D01*
X013542Y019933D01*
X013497Y019944D01*
X013450Y019948D01*
X013403Y019944D01*
X013358Y019933D01*
X013315Y019915D01*
X013275Y019891D01*
X013239Y019861D01*
X013210Y019826D01*
X012990D01*
X012961Y019861D01*
X012925Y019891D01*
X012885Y019915D01*
X012842Y019933D01*
X012797Y019944D01*
X012750Y019948D01*
X012703Y019944D01*
X012658Y019933D01*
X012654Y019932D01*
X012548Y019980D01*
X012504Y020023D01*
Y020177D01*
X012548Y020220D01*
X012654Y020268D01*
X012658Y020267D01*
X012703Y020256D01*
X012750Y020252D01*
X012797Y020256D01*
X012842Y020267D01*
X012885Y020285D01*
X012925Y020309D01*
X012961Y020339D01*
X012990Y020374D01*
X014710D01*
X014739Y020339D01*
X014775Y020309D01*
X014815Y020285D01*
X014858Y020267D01*
X014903Y020256D01*
X014950Y020252D01*
X014997Y020256D01*
X015042Y020267D01*
X015085Y020285D01*
X015125Y020309D01*
X015161Y020339D01*
X015191Y020375D01*
X015215Y020415D01*
X015233Y020458D01*
X015244Y020503D01*
X015248Y020550D01*
X015244Y020597D01*
X015233Y020642D01*
X015215Y020685D01*
X015191Y020725D01*
X015161Y020761D01*
X015125Y020791D01*
X015085Y020815D01*
X015042Y020833D01*
X014997Y020844D01*
X014950Y020848D01*
X014903Y020844D01*
X014858Y020833D01*
X014815Y020815D01*
X014775Y020791D01*
X014739Y020761D01*
X014710Y020726D01*
X012990D01*
X012961Y020761D01*
X012925Y020791D01*
X012885Y020815D01*
X012851Y020830D01*
X012833Y020860D01*
X012809Y020974D01*
X012811Y020989D01*
X012841Y021025D01*
X012865Y021065D01*
X012883Y021108D01*
X012894Y021153D01*
X012898Y021200D01*
X012894Y021247D01*
X012883Y021292D01*
X012865Y021335D01*
X012841Y021375D01*
X012811Y021411D01*
X012775Y021441D01*
X012774Y021442D01*
X012729Y021514D01*
X012717Y021605D01*
X012722Y021630D01*
X012733Y021658D01*
X012744Y021703D01*
X012748Y021750D01*
X012744Y021797D01*
X012733Y021842D01*
X012715Y021885D01*
X012691Y021925D01*
X012661Y021961D01*
X012625Y021991D01*
X012585Y022015D01*
X012542Y022033D01*
X012497Y022044D01*
X012450Y022048D01*
D02*
G37*
G36*
X003756Y023496D02*
X003704Y023493D01*
X003653Y023483D01*
X003604Y023466D01*
X003558Y023443D01*
X003515Y023414D01*
X003476Y023380D01*
X003442Y023341D01*
X003413Y023298D01*
X003390Y023252D01*
X003373Y023203D01*
X003363Y023152D01*
X003360Y023100D01*
X003363Y023048D01*
X003373Y022997D01*
X003390Y022948D01*
X003413Y022902D01*
X003442Y022859D01*
X003476Y022820D01*
X003515Y022786D01*
X003558Y022757D01*
X003604Y022734D01*
X003653Y022717D01*
X003704Y022707D01*
X003756Y022704D01*
X003808Y022707D01*
X003858Y022717D01*
X003907Y022734D01*
X003954Y022757D01*
X003997Y022786D01*
X004036Y022820D01*
X004070Y022859D01*
X004099Y022902D01*
X004122Y022948D01*
X004139Y022997D01*
X004149Y023048D01*
X004152Y023100D01*
X004149Y023152D01*
X004139Y023203D01*
X004122Y023252D01*
X004099Y023298D01*
X004070Y023341D01*
X004036Y023380D01*
X003997Y023414D01*
X003954Y023443D01*
X003907Y023466D01*
X003858Y023483D01*
X003808Y023493D01*
X003756Y023496D01*
D02*
G37*
G36*
X005756D02*
X005704Y023493D01*
X005653Y023483D01*
X005604Y023466D01*
X005558Y023443D01*
X005515Y023414D01*
X005476Y023380D01*
X005442Y023341D01*
X005413Y023298D01*
X005390Y023252D01*
X005373Y023203D01*
X005363Y023152D01*
X005360Y023100D01*
X005363Y023048D01*
X005373Y022997D01*
X005390Y022948D01*
X005413Y022902D01*
X005442Y022859D01*
X005476Y022820D01*
X005515Y022786D01*
X005558Y022757D01*
X005604Y022734D01*
X005653Y022717D01*
X005704Y022707D01*
X005756Y022704D01*
X005808Y022707D01*
X005858Y022717D01*
X005907Y022734D01*
X005954Y022757D01*
X005997Y022786D01*
X006036Y022820D01*
X006070Y022859D01*
X006099Y022902D01*
X006122Y022948D01*
X006139Y022997D01*
X006149Y023048D01*
X006152Y023100D01*
X006149Y023152D01*
X006139Y023203D01*
X006122Y023252D01*
X006099Y023298D01*
X006070Y023341D01*
X006036Y023380D01*
X005997Y023414D01*
X005954Y023443D01*
X005907Y023466D01*
X005858Y023483D01*
X005808Y023493D01*
X005756Y023496D01*
D02*
G37*
G36*
X004756D02*
X004704Y023493D01*
X004653Y023483D01*
X004604Y023466D01*
X004558Y023443D01*
X004515Y023414D01*
X004476Y023380D01*
X004442Y023341D01*
X004413Y023298D01*
X004390Y023252D01*
X004373Y023203D01*
X004363Y023152D01*
X004360Y023100D01*
X004363Y023048D01*
X004373Y022997D01*
X004390Y022948D01*
X004413Y022902D01*
X004442Y022859D01*
X004476Y022820D01*
X004515Y022786D01*
X004558Y022757D01*
X004604Y022734D01*
X004653Y022717D01*
X004704Y022707D01*
X004756Y022704D01*
X004808Y022707D01*
X004858Y022717D01*
X004908Y022734D01*
X004954Y022757D01*
X004997Y022786D01*
X005036Y022820D01*
X005070Y022859D01*
X005099Y022902D01*
X005122Y022948D01*
X005139Y022997D01*
X005149Y023048D01*
X005152Y023100D01*
X005149Y023152D01*
X005139Y023203D01*
X005122Y023252D01*
X005099Y023298D01*
X005070Y023341D01*
X005036Y023380D01*
X004997Y023414D01*
X004954Y023443D01*
X004908Y023466D01*
X004858Y023483D01*
X004808Y023493D01*
X004756Y023496D01*
D02*
G37*
G36*
X002756Y031395D02*
X002653Y031381D01*
X002557Y031341D01*
X002474Y031278D01*
X002411Y031195D01*
X002371Y031099D01*
X002357Y030996D01*
X002371Y030893D01*
X002411Y030797D01*
X002474Y030714D01*
X002557Y030651D01*
X002653Y030611D01*
X002756Y030597D01*
X002859Y030611D01*
X002955Y030651D01*
X003038Y030714D01*
X003101Y030797D01*
X003141Y030893D01*
X003155Y030996D01*
X003141Y031099D01*
X003101Y031195D01*
X003038Y031278D01*
X002955Y031341D01*
X002859Y031381D01*
X002756Y031395D01*
D02*
G37*
G36*
X012737Y025538D02*
X012692Y025534D01*
X012648Y025524D01*
X012607Y025507D01*
X012568Y025483D01*
X012523Y025454D01*
X012452D01*
X012407Y025483D01*
X012368Y025507D01*
X012326Y025524D01*
X012282Y025534D01*
X012237Y025538D01*
X012192Y025534D01*
X012148Y025524D01*
X012107Y025507D01*
X012068Y025483D01*
X012023Y025454D01*
X011952D01*
X011907Y025483D01*
X011868Y025507D01*
X011826Y025524D01*
X011782Y025534D01*
X011737Y025538D01*
X011692Y025534D01*
X011648Y025524D01*
X011607Y025507D01*
X011568Y025483D01*
X011534Y025454D01*
X011504Y025419D01*
X011481Y025381D01*
X011464Y025339D01*
X011453Y025295D01*
X011450Y025250D01*
X011453Y025205D01*
X011464Y025161D01*
X011481Y025119D01*
X011504Y025081D01*
X011534Y025036D01*
Y024964D01*
X011504Y024919D01*
X011481Y024881D01*
X011479Y024875D01*
X011737D01*
Y024750D01*
X011862D01*
Y024491D01*
X011868Y024493D01*
X011907Y024517D01*
X011952Y024546D01*
X012023D01*
X012068Y024517D01*
X012107Y024493D01*
X012148Y024476D01*
X012192Y024466D01*
X012237Y024462D01*
X012282Y024466D01*
X012326Y024476D01*
X012368Y024493D01*
X012407Y024517D01*
X012452Y024546D01*
X012523D01*
X012568Y024517D01*
X012607Y024493D01*
X012648Y024476D01*
X012692Y024466D01*
X012737Y024462D01*
X012782Y024466D01*
X012826Y024476D01*
X012868Y024493D01*
X012907Y024517D01*
X012941Y024546D01*
X012970Y024581D01*
X012994Y024619D01*
X013011Y024661D01*
X013022Y024705D01*
X013025Y024750D01*
X013022Y024795D01*
X013011Y024839D01*
X012994Y024881D01*
X012970Y024919D01*
X012941Y024964D01*
Y025036D01*
X012970Y025081D01*
X012994Y025119D01*
X013011Y025161D01*
X013022Y025205D01*
X013025Y025250D01*
X013022Y025295D01*
X013011Y025339D01*
X012994Y025381D01*
X012970Y025419D01*
X012941Y025454D01*
X012907Y025483D01*
X012868Y025507D01*
X012826Y025524D01*
X012782Y025534D01*
X012737Y025538D01*
D02*
G37*
G36*
X018525Y025275D02*
Y025025D01*
X018775D01*
X018766Y025052D01*
X018743Y025098D01*
X018714Y025141D01*
X018680Y025180D01*
X018641Y025214D01*
X018598Y025243D01*
X018552Y025266D01*
X018525Y025275D01*
D02*
G37*
G36*
X004325Y015885D02*
X003800D01*
Y015760D01*
X004325D01*
Y015885D01*
D02*
G37*
G36*
X005100D02*
X004575D01*
Y015760D01*
X005100D01*
Y015885D01*
D02*
G37*
G36*
X003756Y031395D02*
X003653Y031381D01*
X003557Y031341D01*
X003474Y031278D01*
X003411Y031195D01*
X003371Y031099D01*
X003357Y030996D01*
X003371Y030893D01*
X003411Y030797D01*
X003474Y030714D01*
X003557Y030651D01*
X003653Y030611D01*
X003756Y030597D01*
X003859Y030611D01*
X003955Y030651D01*
X004038Y030714D01*
X004101Y030797D01*
X004141Y030893D01*
X004155Y030996D01*
X004141Y031099D01*
X004101Y031195D01*
X004038Y031278D01*
X003955Y031341D01*
X003859Y031381D01*
X003756Y031395D01*
D02*
G37*
G36*
X018775Y024775D02*
X018525D01*
Y024525D01*
X018552Y024534D01*
X018598Y024557D01*
X018641Y024586D01*
X018680Y024620D01*
X018714Y024659D01*
X018743Y024702D01*
X018766Y024748D01*
X018775Y024775D01*
D02*
G37*
G36*
X018275D02*
X018025D01*
X018034Y024748D01*
X018057Y024702D01*
X018086Y024659D01*
X018120Y024620D01*
X018159Y024586D01*
X018202Y024557D01*
X018248Y024534D01*
X018275Y024525D01*
Y024775D01*
D02*
G37*
G36*
X011612Y024625D02*
X011479D01*
X011481Y024619D01*
X011504Y024581D01*
X011534Y024546D01*
X011568Y024517D01*
X011607Y024493D01*
X011612Y024491D01*
Y024625D01*
D02*
G37*
G36*
X018275Y025275D02*
X018248Y025266D01*
X018202Y025243D01*
X018159Y025214D01*
X018120Y025180D01*
X018086Y025141D01*
X018057Y025098D01*
X018034Y025052D01*
X018025Y025025D01*
X018275D01*
Y025275D01*
D02*
G37*
G36*
X003050Y018998D02*
X003003Y018994D01*
X002958Y018983D01*
X002915Y018965D01*
X002875Y018941D01*
X002839Y018911D01*
X002809Y018875D01*
X002785Y018835D01*
X002767Y018792D01*
X002756Y018747D01*
X002752Y018700D01*
X002756Y018653D01*
X002767Y018608D01*
X002785Y018565D01*
X002809Y018525D01*
X002839Y018489D01*
X002875Y018459D01*
X002915Y018435D01*
X002958Y018417D01*
X003003Y018406D01*
X003050Y018402D01*
X003097Y018406D01*
X003124Y018413D01*
X003890Y017647D01*
X003949Y017501D01*
X003919Y017466D01*
X003894Y017426D01*
X003876Y017383D01*
X003865Y017337D01*
X003862Y017291D01*
X003865Y017244D01*
X003876Y017199D01*
X003894Y017155D01*
X003919Y017116D01*
X003949Y017080D01*
X003984Y017050D01*
X004024Y017025D01*
X004067Y017007D01*
X004113Y016996D01*
X004159Y016993D01*
X004206Y016996D01*
X004251Y017007D01*
X004295Y017025D01*
X004334Y017050D01*
X004370Y017080D01*
X004400Y017116D01*
X004425Y017155D01*
X004443Y017199D01*
X004454Y017244D01*
X004457Y017291D01*
X004454Y017337D01*
X004443Y017383D01*
X004425Y017426D01*
X004400Y017466D01*
X004370Y017501D01*
X004334Y017531D01*
X004310Y017546D01*
Y017591D01*
X004307Y017620D01*
X004299Y017648D01*
X004285Y017674D01*
X004266Y017697D01*
X003337Y018626D01*
X003344Y018653D01*
X003348Y018700D01*
X003344Y018747D01*
X003333Y018792D01*
X003315Y018835D01*
X003291Y018875D01*
X003261Y018911D01*
X003225Y018941D01*
X003185Y018965D01*
X003142Y018983D01*
X003097Y018994D01*
X003050Y018998D01*
D02*
G37*
%LPD*%
G36*
X003947Y021872D02*
X003933Y021854D01*
X003921Y021834D01*
X003910Y021813D01*
X003901Y021791D01*
X003894Y021767D01*
X003888Y021741D01*
X003884Y021714D01*
X003882Y021685D01*
X003881Y021655D01*
X003631D01*
X003630Y021685D01*
X003628Y021714D01*
X003624Y021741D01*
X003618Y021767D01*
X003610Y021791D01*
X003602Y021813D01*
X003591Y021834D01*
X003579Y021854D01*
X003565Y021872D01*
X003549Y021889D01*
X003963D01*
X003947Y021872D01*
D02*
G37*
G36*
X017264Y005362D02*
X017273Y005354D01*
X017283Y005347D01*
X017296Y005341D01*
X017309Y005336D01*
X017325Y005332D01*
X017341Y005329D01*
X017359Y005327D01*
X017379Y005325D01*
X017400Y005325D01*
Y005175D01*
X017379Y005175D01*
X017341Y005171D01*
X017325Y005168D01*
X017309Y005164D01*
X017296Y005159D01*
X017283Y005153D01*
X017273Y005146D01*
X017264Y005138D01*
X017256Y005130D01*
Y005370D01*
X017264Y005362D01*
D02*
G37*
G36*
X012448Y021553D02*
X012431Y021553D01*
X012414Y021551D01*
X012397Y021547D01*
X012381Y021543D01*
X012365Y021537D01*
X012349Y021529D01*
X012334Y021520D01*
X012319Y021510D01*
X012305Y021498D01*
X012291Y021485D01*
X012185Y021591D01*
X012198Y021605D01*
X012210Y021619D01*
X012220Y021634D01*
X012229Y021649D01*
X012236Y021665D01*
X012243Y021681D01*
X012247Y021697D01*
X012251Y021714D01*
X012253Y021731D01*
X012253Y021748D01*
X012448Y021553D01*
D02*
G37*
G36*
X005052Y022074D02*
X005055Y022052D01*
X005060Y022029D01*
X005068Y022006D01*
X005077Y021984D01*
X005089Y021962D01*
X005103Y021940D01*
X005120Y021918D01*
X005138Y021896D01*
X005159Y021874D01*
X004982Y021697D01*
X004960Y021718D01*
X004938Y021736D01*
X004916Y021753D01*
X004894Y021767D01*
X004872Y021778D01*
X004849Y021788D01*
X004827Y021796D01*
X004804Y021801D01*
X004782Y021804D01*
X004759Y021805D01*
X005051Y022097D01*
X005052Y022074D01*
D02*
G37*
G36*
X011914Y004344D02*
X011959Y004340D01*
X012139Y004334D01*
X013399Y004325D01*
Y003575D01*
X013114Y003571D01*
X012438Y003515D01*
X012273Y003481D01*
X012138Y003440D01*
X012033Y003391D01*
X011958Y003335D01*
X011913Y003271D01*
X011898Y003200D01*
X011899Y004349D01*
X011914Y004344D01*
D02*
G37*
G36*
X010009Y004412D02*
X009997Y004424D01*
X009983Y004435D01*
X009969Y004444D01*
X009954Y004452D01*
X009939Y004459D01*
X009922Y004465D01*
X009905Y004469D01*
X009888Y004472D01*
X009869Y004474D01*
X009850Y004475D01*
Y004625D01*
X009869Y004626D01*
X009888Y004628D01*
X009905Y004631D01*
X009922Y004635D01*
X009939Y004641D01*
X009954Y004648D01*
X009969Y004656D01*
X009983Y004665D01*
X009997Y004676D01*
X010009Y004688D01*
Y004412D01*
D02*
G37*
G36*
X007753Y021805D02*
X007730Y021804D01*
X007707Y021801D01*
X007685Y021796D01*
X007662Y021788D01*
X007640Y021778D01*
X007618Y021767D01*
X007596Y021753D01*
X007574Y021736D01*
X007552Y021718D01*
X007530Y021697D01*
X007353Y021874D01*
X007374Y021896D01*
X007392Y021918D01*
X007408Y021940D01*
X007422Y021962D01*
X007434Y021984D01*
X007444Y022006D01*
X007451Y022029D01*
X007457Y022052D01*
X007460Y022074D01*
X007461Y022097D01*
X007753Y021805D01*
D02*
G37*
G36*
X012903Y019776D02*
X012917Y019765D01*
X012931Y019756D01*
X012946Y019748D01*
X012961Y019741D01*
X012978Y019735D01*
X012995Y019731D01*
X013012Y019728D01*
X013031Y019726D01*
X013050Y019725D01*
Y019575D01*
X013031Y019574D01*
X013012Y019572D01*
X012995Y019569D01*
X012978Y019565D01*
X012961Y019559D01*
X012946Y019552D01*
X012931Y019544D01*
X012917Y019535D01*
X012903Y019524D01*
X012891Y019512D01*
Y019788D01*
X012903Y019776D01*
D02*
G37*
G36*
X004226Y019590D02*
X004227Y019571D01*
X004234Y019548D01*
X004247Y019521D01*
X004266Y019491D01*
X004290Y019458D01*
X004320Y019421D01*
X004396Y019336D01*
X004443Y019288D01*
X004407Y019112D01*
X004353Y019165D01*
X004220Y019282D01*
X004186Y019307D01*
X004156Y019325D01*
X004132Y019335D01*
X004113Y019339D01*
X004098Y019336D01*
X004089Y019325D01*
X004230Y019606D01*
X004226Y019590D01*
D02*
G37*
G36*
X013309Y019512D02*
X013297Y019524D01*
X013283Y019535D01*
X013269Y019544D01*
X013254Y019552D01*
X013239Y019559D01*
X013222Y019565D01*
X013205Y019569D01*
X013188Y019572D01*
X013169Y019574D01*
X013150Y019575D01*
Y019725D01*
X013169Y019726D01*
X013188Y019728D01*
X013205Y019731D01*
X013222Y019735D01*
X013239Y019741D01*
X013254Y019748D01*
X013269Y019756D01*
X013283Y019765D01*
X013297Y019776D01*
X013309Y019788D01*
Y019512D01*
D02*
G37*
G36*
X016803Y007476D02*
X016817Y007465D01*
X016831Y007456D01*
X016846Y007448D01*
X016861Y007441D01*
X016878Y007435D01*
X016895Y007431D01*
X016912Y007428D01*
X016931Y007426D01*
X016950Y007425D01*
Y007275D01*
X016931Y007274D01*
X016912Y007272D01*
X016895Y007269D01*
X016878Y007265D01*
X016861Y007259D01*
X016846Y007252D01*
X016831Y007244D01*
X016817Y007235D01*
X016803Y007224D01*
X016791Y007212D01*
Y007488D01*
X016803Y007476D01*
D02*
G37*
G36*
X007099Y019919D02*
X007104Y019832D01*
X007140D01*
X007133Y019830D01*
X007125Y019823D01*
X007119Y019811D01*
X007114Y019795D01*
X007109Y019774D01*
X007108Y019767D01*
X007111Y019724D01*
X007115Y019703D01*
X007120Y019688D01*
X007126Y019679D01*
X007132Y019676D01*
X007101Y019676D01*
X007099Y019599D01*
X006949D01*
X006949Y019643D01*
X006946Y019675D01*
X006874Y019675D01*
X006888Y019678D01*
X006901Y019687D01*
X006912Y019702D01*
X006922Y019723D01*
X006930Y019750D01*
X006937Y019782D01*
X006934Y019795D01*
X006929Y019811D01*
X006923Y019823D01*
X006916Y019830D01*
X006908Y019832D01*
X006943D01*
X006948Y019919D01*
X006949Y019976D01*
X007099D01*
X007099Y019919D01*
D02*
G37*
G36*
X012404Y018738D02*
X012406Y018721D01*
X012410Y018703D01*
X012416Y018687D01*
X012423Y018670D01*
X012431Y018654D01*
X012441Y018637D01*
X012453Y018622D01*
X012466Y018606D01*
X012481Y018591D01*
X012205D01*
X012220Y018606D01*
X012233Y018622D01*
X012245Y018637D01*
X012255Y018654D01*
X012264Y018670D01*
X012271Y018687D01*
X012276Y018703D01*
X012280Y018721D01*
X012282Y018738D01*
X012283Y018756D01*
X012403D01*
X012404Y018738D01*
D02*
G37*
G36*
X016426Y008681D02*
X016428Y008662D01*
X016431Y008645D01*
X016435Y008628D01*
X016441Y008611D01*
X016448Y008596D01*
X016456Y008581D01*
X016465Y008567D01*
X016476Y008553D01*
X016488Y008541D01*
X016212D01*
X016224Y008553D01*
X016235Y008567D01*
X016244Y008581D01*
X016252Y008596D01*
X016259Y008611D01*
X016265Y008628D01*
X016269Y008645D01*
X016272Y008662D01*
X016274Y008681D01*
X016275Y008700D01*
X016425D01*
X016426Y008681D01*
D02*
G37*
G36*
X015747Y011181D02*
X015749Y011164D01*
X015753Y011147D01*
X015757Y011131D01*
X015763Y011115D01*
X015771Y011099D01*
X015780Y011084D01*
X015790Y011069D01*
X015802Y011055D01*
X015815Y011041D01*
X015709Y010935D01*
X015695Y010948D01*
X015681Y010960D01*
X015666Y010970D01*
X015651Y010979D01*
X015635Y010986D01*
X015619Y010993D01*
X015603Y010997D01*
X015586Y011001D01*
X015569Y011003D01*
X015552Y011003D01*
X015747Y011198D01*
X015747Y011181D01*
D02*
G37*
G36*
X004210Y017573D02*
X004212Y017556D01*
X004216Y017540D01*
X004221Y017524D01*
X004227Y017510D01*
X004235Y017495D01*
X004244Y017482D01*
X004254Y017469D01*
X004266Y017458D01*
X004280Y017446D01*
X004039D01*
X004052Y017458D01*
X004064Y017469D01*
X004075Y017482D01*
X004084Y017495D01*
X004092Y017510D01*
X004098Y017524D01*
X004103Y017540D01*
X004107Y017556D01*
X004109Y017573D01*
X004109Y017591D01*
X004209D01*
X004210Y017573D01*
D02*
G37*
G36*
X003247Y018674D02*
X003249Y018651D01*
X003251Y018630D01*
X003255Y018610D01*
X003260Y018591D01*
X003267Y018574D01*
X003274Y018558D01*
X003283Y018543D01*
X003293Y018529D01*
X003304Y018517D01*
X003233Y018447D01*
X003221Y018457D01*
X003207Y018467D01*
X003192Y018476D01*
X003176Y018483D01*
X003159Y018490D01*
X003140Y018495D01*
X003120Y018499D01*
X003099Y018501D01*
X003076Y018503D01*
X003052Y018503D01*
X003247Y018698D01*
X003247Y018674D01*
D02*
G37*
G36*
X012068Y018188D02*
X012070Y018170D01*
X012073Y018152D01*
X012078Y018135D01*
X012083Y018119D01*
X012090Y018103D01*
X012098Y018088D01*
X012108Y018074D01*
X012118Y018061D01*
X012130Y018048D01*
X011855D01*
X011867Y018061D01*
X011877Y018074D01*
X011887Y018088D01*
X011895Y018103D01*
X011902Y018119D01*
X011908Y018135D01*
X011912Y018152D01*
X011915Y018170D01*
X011917Y018188D01*
X011918Y018208D01*
X012068D01*
X012068Y018188D01*
D02*
G37*
G36*
X007709Y020562D02*
X007697Y020574D01*
X007683Y020585D01*
X007669Y020594D01*
X007654Y020602D01*
X007639Y020609D01*
X007622Y020615D01*
X007605Y020619D01*
X007588Y020622D01*
X007569Y020624D01*
X007550Y020625D01*
Y020775D01*
X007569Y020776D01*
X007588Y020778D01*
X007605Y020781D01*
X007622Y020785D01*
X007639Y020791D01*
X007654Y020798D01*
X007669Y020806D01*
X007683Y020815D01*
X007697Y020826D01*
X007709Y020838D01*
Y020562D01*
D02*
G37*
G36*
X014809Y020412D02*
X014797Y020424D01*
X014783Y020435D01*
X014769Y020444D01*
X014754Y020452D01*
X014739Y020459D01*
X014722Y020465D01*
X014705Y020469D01*
X014688Y020472D01*
X014669Y020474D01*
X014650Y020475D01*
Y020625D01*
X014669Y020626D01*
X014688Y020628D01*
X014705Y020631D01*
X014722Y020635D01*
X014739Y020641D01*
X014754Y020648D01*
X014769Y020656D01*
X014783Y020665D01*
X014797Y020676D01*
X014809Y020688D01*
Y020412D01*
D02*
G37*
G36*
X012598Y021003D02*
X012577Y021003D01*
X012556Y021001D01*
X012537Y020998D01*
X012518Y020994D01*
X012501Y020988D01*
X012484Y020981D01*
X012468Y020973D01*
X012453Y020964D01*
X012439Y020953D01*
X012426Y020941D01*
X012341Y021026D01*
X012353Y021039D01*
X012364Y021053D01*
X012373Y021068D01*
X012381Y021084D01*
X012388Y021101D01*
X012394Y021118D01*
X012398Y021137D01*
X012401Y021156D01*
X012403Y021177D01*
X012403Y021198D01*
X012598Y021003D01*
D02*
G37*
G36*
X012046Y006794D02*
X012091Y006730D01*
X012166Y006674D01*
X012271Y006625D01*
X012406Y006584D01*
X012571Y006550D01*
X012766Y006524D01*
X013247Y006494D01*
X013532Y006490D01*
Y005740D01*
X013247Y005737D01*
X012571Y005680D01*
X012406Y005647D01*
X012271Y005605D01*
X012166Y005557D01*
X012091Y005500D01*
X012046Y005437D01*
X012031Y005365D01*
Y006865D01*
X012046Y006794D01*
D02*
G37*
G36*
X008489Y005531D02*
X008494Y005530D01*
X008502Y005530D01*
X008566Y005528D01*
X008648Y005527D01*
Y005377D01*
X008487Y005373D01*
Y005532D01*
X008489Y005531D01*
D02*
G37*
G36*
X012903Y020676D02*
X012917Y020665D01*
X012931Y020656D01*
X012946Y020648D01*
X012961Y020641D01*
X012978Y020635D01*
X012995Y020631D01*
X013012Y020628D01*
X013031Y020626D01*
X013050Y020625D01*
Y020475D01*
X013031Y020474D01*
X013012Y020472D01*
X012995Y020469D01*
X012978Y020465D01*
X012961Y020459D01*
X012946Y020452D01*
X012931Y020444D01*
X012917Y020435D01*
X012903Y020424D01*
X012891Y020412D01*
Y020688D01*
X012903Y020676D01*
D02*
G37*
G36*
X005649Y019919D02*
X005654Y019832D01*
X005690D01*
X005683Y019830D01*
X005675Y019823D01*
X005669Y019811D01*
X005664Y019795D01*
X005659Y019774D01*
X005658Y019767D01*
X005661Y019724D01*
X005665Y019703D01*
X005670Y019688D01*
X005676Y019679D01*
X005682Y019676D01*
X005651Y019676D01*
X005649Y019599D01*
X005499D01*
X005499Y019643D01*
X005496Y019675D01*
X005424Y019675D01*
X005438Y019678D01*
X005451Y019687D01*
X005462Y019702D01*
X005472Y019723D01*
X005480Y019750D01*
X005487Y019782D01*
X005484Y019795D01*
X005479Y019811D01*
X005473Y019823D01*
X005466Y019830D01*
X005458Y019832D01*
X005493D01*
X005498Y019919D01*
X005499Y019976D01*
X005649D01*
X005649Y019919D01*
D02*
G37*
G36*
X004199D02*
X004206Y019832D01*
X004240D01*
X004233Y019830D01*
X004225Y019823D01*
X004219Y019811D01*
X004214Y019795D01*
X004210Y019775D01*
X004215Y019703D01*
X004220Y019688D01*
X004225Y019679D01*
X004231Y019676D01*
X004201Y019676D01*
X004199Y019599D01*
X004049D01*
X004049Y019643D01*
X004046Y019675D01*
X003974Y019675D01*
X003988Y019678D01*
X004001Y019687D01*
X004012Y019702D01*
X004022Y019723D01*
X004030Y019750D01*
X004037Y019782D01*
X004034Y019795D01*
X004029Y019811D01*
X004023Y019823D01*
X004016Y019830D01*
X004008Y019832D01*
X004043D01*
X004048Y019919D01*
X004049Y019976D01*
X004199D01*
X004199Y019919D01*
D02*
G37*
G36*
X008848Y020003D02*
X008831Y020003D01*
X008814Y020001D01*
X008797Y019997D01*
X008781Y019993D01*
X008765Y019986D01*
X008749Y019979D01*
X008734Y019970D01*
X008719Y019960D01*
X008705Y019948D01*
X008691Y019935D01*
X008585Y020041D01*
X008598Y020055D01*
X008610Y020069D01*
X008620Y020084D01*
X008629Y020099D01*
X008637Y020115D01*
X008643Y020131D01*
X008647Y020147D01*
X008651Y020164D01*
X008653Y020181D01*
X008653Y020198D01*
X008848Y020003D01*
D02*
G37*
G36*
X010576Y006464D02*
X010583Y006456D01*
X010603Y006433D01*
X010729Y006303D01*
X010644Y006177D01*
X010629Y006191D01*
X010614Y006202D01*
X010600Y006211D01*
X010586Y006218D01*
X010573Y006222D01*
X010559Y006225D01*
X010546Y006225D01*
X010533Y006222D01*
X010521Y006218D01*
X010509Y006211D01*
X010573Y006470D01*
X010576Y006464D01*
D02*
G37*
G36*
X008311Y020136D02*
X008305Y020128D01*
X008300Y020119D01*
X008295Y020108D01*
X008291Y020095D01*
X008288Y020081D01*
X008285Y020065D01*
X008283Y020047D01*
X008282Y020007D01*
X008132D01*
X008132Y020027D01*
X008128Y020062D01*
X008126Y020077D01*
X008122Y020090D01*
X008118Y020102D01*
X008113Y020113D01*
X008107Y020121D01*
X008101Y020129D01*
X008093Y020135D01*
X008318Y020142D01*
X008311Y020136D01*
D02*
G37*
D12*
X015276Y004850D02*
D03*
X014724D02*
D03*
X006976Y019500D02*
D03*
X006424D02*
D03*
X005526D02*
D03*
X004974D02*
D03*
X004075D02*
D03*
X003524D02*
D03*
D17*
X008350Y003600D02*
D03*
X011350D02*
D03*
D27*
X004159Y017291D02*
Y017591D01*
X003050Y018700D02*
X004159Y017591D01*
D28*
X005525Y019275D02*
Y019550D01*
X004075D02*
X004725Y018900D01*
X011287Y003550D02*
X011687Y003950D01*
X003772Y022084D02*
X003787Y022100D01*
X007772Y022084D02*
X007787Y022100D01*
X008207Y020007D02*
Y020200D01*
X007350Y019150D02*
X008207Y020007D01*
X005650Y019150D02*
X007350D01*
X008207Y020200D02*
X008247Y020240D01*
X010037Y001058D02*
Y002369D01*
X014863Y013813D02*
Y016037D01*
X014300Y013250D02*
X014863Y013813D01*
X014300Y010450D02*
Y013250D01*
X012300Y008450D02*
X014300Y010450D01*
X001500Y006800D02*
X002697D01*
X001250Y007050D02*
X001500Y006800D01*
X001250Y007050D02*
Y011250D01*
X017650Y005500D02*
Y006750D01*
X017400Y005250D02*
X017650Y005500D01*
X017100Y005250D02*
X017400D01*
X017050Y007350D02*
X017650Y006750D01*
X016650Y007350D02*
X017050D01*
X016650D02*
X016700Y007300D01*
X016350Y008400D02*
Y010400D01*
X015550Y011200D02*
X016350Y010400D01*
X011993Y017907D02*
Y021293D01*
X012450Y021750D01*
X012750Y020550D02*
X014950D01*
X012750Y019650D02*
X013450D01*
X001435Y006115D02*
X002984D01*
X000950Y006600D02*
X001435Y006115D01*
X001650Y019800D02*
Y023650D01*
X002350Y024350D01*
X009150D01*
X001650Y023650D02*
X002200Y023100D01*
X002756D01*
X007024Y020424D02*
X007300Y020700D01*
X007850D01*
X007550Y018900D02*
X008850Y020200D01*
X002373Y005504D02*
X002984Y006115D01*
X001987Y005504D02*
X002373D01*
X004637Y005509D02*
Y006115D01*
X004533Y005404D02*
X004637Y005509D01*
X003837Y005404D02*
X004533D01*
X002697Y006800D02*
X002699Y006802D01*
X003951D01*
X004637Y006115D01*
X010576Y006350D02*
X010811Y006115D01*
X004124Y019599D02*
Y020187D01*
X005574Y019599D02*
Y020187D01*
X007024Y019599D02*
Y020187D01*
Y020424D01*
X005525Y019275D02*
X005650Y019150D01*
X004725Y018900D02*
X007550D01*
X008116Y005452D02*
X008648D01*
X009550Y004550D01*
X010150D01*
X005592Y004905D02*
Y007692D01*
X004637Y003950D02*
X005592Y004905D01*
X000950Y006600D02*
Y011600D01*
X001750Y012400D01*
X001250Y011250D02*
X002500Y012500D01*
X003200D01*
D29*
X006291Y006841D02*
X007058D01*
X003730Y004696D02*
X003837D01*
X002984Y003950D02*
X003730Y004696D01*
X002138Y004796D02*
X002984Y003950D01*
X001987Y004796D02*
X002138D01*
X006291Y006115D02*
X007058D01*
X001100Y012350D02*
Y012900D01*
X001850D01*
X002150Y021250D02*
Y021750D01*
X006291Y006115D02*
Y006841D01*
D31*
X002800Y020600D02*
X006250D01*
X002150Y021250D02*
X002800Y020600D01*
D32*
X009450Y015113D02*
X011013D01*
X015276Y003962D02*
Y004850D01*
X013600Y016600D02*
X015075D01*
X015337Y016337D01*
D34*
X009150Y024350D02*
X011250D01*
X011294Y024306D01*
X008800Y021813D02*
X011294Y024306D01*
X008800Y021400D02*
Y021813D01*
X003756Y021019D02*
Y022100D01*
X004756D02*
X005200Y021656D01*
Y021013D02*
Y021656D01*
X006650Y021013D02*
Y021400D01*
X006750Y021500D01*
X007156D01*
X007756Y022100D01*
X003376Y020187D02*
Y020539D01*
X004826Y020187D02*
Y020576D01*
Y019698D02*
X004974Y019550D01*
X004826Y019698D02*
Y020187D01*
X006276Y019698D02*
Y020187D01*
Y019698D02*
X006424Y019550D01*
X003376Y019698D02*
Y020187D01*
Y019698D02*
X003524Y019550D01*
X006276Y020187D02*
Y020574D01*
X006250Y020600D02*
X006276Y020574D01*
D35*
X012236Y018450D02*
X012343Y018343D01*
Y018450D02*
Y020943D01*
Y018343D02*
Y018450D01*
Y020943D02*
X012600Y021200D01*
X012236Y018450D02*
X012343D01*
D38*
X003350Y011150D02*
D03*
D39*
X005200Y009200D02*
D03*
D40*
X002324Y032050D02*
D03*
D41*
X002769Y032343D02*
D03*
X002743Y031650D02*
D03*
D42*
X003102Y031983D02*
D03*
D44*
X011625Y003925D02*
D03*
D47*
X006291Y006115D02*
D03*
Y003950D02*
D03*
X004637Y006115D02*
D03*
Y003950D02*
D03*
X002984D02*
D03*
Y006115D02*
D03*
X016941D02*
D03*
Y003950D02*
D03*
X015287Y006115D02*
D03*
Y003950D02*
D03*
X013634D02*
D03*
Y006115D02*
D03*
D48*
X006291Y001076D02*
D03*
X002984D02*
D03*
X016941D02*
D03*
X013634D02*
D03*
D49*
X009053Y002042D02*
D03*
X010037Y001058D02*
D03*
X011022Y002042D02*
D03*
X002756Y022100D02*
D03*
X003756Y023100D02*
D03*
Y022100D02*
D03*
X004756Y023100D02*
D03*
Y022100D02*
D03*
X005756Y023100D02*
D03*
Y022100D02*
D03*
X006756Y023100D02*
D03*
Y022100D02*
D03*
X007756Y023100D02*
D03*
Y022100D02*
D03*
X002756Y030996D02*
D03*
X003756Y031996D02*
D03*
Y030996D02*
D03*
X004756Y031996D02*
D03*
Y030996D02*
D03*
X005756Y031996D02*
D03*
Y030996D02*
D03*
X006756Y031996D02*
D03*
Y030996D02*
D03*
X007756Y031996D02*
D03*
Y030996D02*
D03*
D50*
X002756Y023100D02*
D03*
Y031996D02*
D03*
D51*
X011737Y025250D02*
D03*
Y024750D02*
D03*
X012237Y025250D02*
D03*
Y024750D02*
D03*
X012737Y025250D02*
D03*
Y024750D02*
D03*
D52*
X012539Y034496D02*
D03*
X011539D02*
D03*
X010539D02*
D03*
X009539D02*
D03*
X008539D02*
D03*
X007539D02*
D03*
Y028496D02*
D03*
X008539D02*
D03*
X009539D02*
D03*
X010539D02*
D03*
X011539D02*
D03*
D53*
X012539D02*
D03*
D54*
X018400Y024900D02*
D03*
X018050Y007900D02*
D03*
D55*
X015748Y031496D02*
D03*
D56*
X005118Y026673D02*
D03*
X005512D02*
D03*
X005906D02*
D03*
X006299D02*
D03*
X006693D02*
D03*
X014961D02*
D03*
X014567D02*
D03*
X014173D02*
D03*
X013780D02*
D03*
X013386D02*
D03*
X013396Y027657D02*
D03*
X013790D02*
D03*
X014184D02*
D03*
X014578D02*
D03*
X014971D02*
D03*
X006704D02*
D03*
X006310D02*
D03*
X005916D02*
D03*
X005522D02*
D03*
X005129D02*
D03*
D57*
X017496Y019478D02*
D03*
Y017509D02*
D03*
X015528Y001761D02*
D03*
X011591Y021446D02*
D03*
Y013572D02*
D03*
Y001761D02*
D03*
X009622Y003730D02*
D03*
Y001761D02*
D03*
X007654Y017509D02*
D03*
Y001761D02*
D03*
X005685Y013572D02*
D03*
Y009635D02*
D03*
X003717Y011604D02*
D03*
X001748Y017509D02*
D03*
Y003730D02*
D03*
Y001761D02*
D03*
X003050Y018700D02*
D03*
X008200Y020300D02*
D03*
X017450Y012950D02*
D03*
X017700Y017050D02*
D03*
Y018950D02*
D03*
X016600Y020850D02*
D03*
X014800Y011450D02*
D03*
Y012050D02*
D03*
Y012650D02*
D03*
X013850Y011450D02*
D03*
Y012050D02*
D03*
Y012650D02*
D03*
X010100Y007850D02*
D03*
X004650Y007650D02*
D03*
X010400Y007200D02*
D03*
Y005550D02*
D03*
X015837Y016037D02*
D03*
X004650Y008633D02*
D03*
X003767Y007650D02*
D03*
X002883D02*
D03*
X002000D02*
D03*
X003767Y008633D02*
D03*
X002883D02*
D03*
X002000D02*
D03*
X004650Y009617D02*
D03*
X003767D02*
D03*
X002883D02*
D03*
X002000D02*
D03*
X004650Y010600D02*
D03*
X003767D02*
D03*
X002883D02*
D03*
X002000Y010600D02*
D03*
X011200Y007200D02*
D03*
Y006350D02*
D03*
Y005500D02*
D03*
X010400Y006375D02*
D03*
X017100Y005250D02*
D03*
X016650Y007350D02*
D03*
X015800Y007900D02*
D03*
X015550Y011200D02*
D03*
X009450Y015113D02*
D03*
X011013D02*
D03*
X011993Y017907D02*
D03*
X012750Y020550D02*
D03*
X012343Y018450D02*
D03*
X012600Y021200D02*
D03*
X012750Y019650D02*
D03*
X013450D02*
D03*
X013600Y016600D02*
D03*
X015337Y016337D02*
D03*
X015474Y022376D02*
D03*
X014676Y018076D02*
D03*
X012337Y013413D02*
D03*
X012774Y015750D02*
D03*
X001750Y012400D02*
D03*
X003200Y012500D02*
D03*
X012450Y021750D02*
D03*
X014950Y020550D02*
D03*
X007250Y016550D02*
D03*
X002150Y013900D02*
D03*
X004150Y013950D02*
D03*
X001100Y012900D02*
D03*
Y012350D02*
D03*
X001650Y023650D02*
D03*
X009150Y024350D02*
D03*
X008800Y021400D02*
D03*
X002150Y021750D02*
D03*
X001650Y019800D02*
D03*
X002350Y017924D02*
D03*
X002650Y017300D02*
D03*
X004159Y017291D02*
D03*
X002150Y021250D02*
D03*
X007850Y020700D02*
D03*
X008850Y020200D02*
D03*
X010150Y004550D02*
D03*
X012250Y004217D02*
D03*
Y003050D02*
D03*
Y004800D02*
D03*
Y003633D02*
D03*
X005600Y007700D02*
D03*
X014863Y016037D02*
D03*
X012300Y008450D02*
D03*
X016350Y008400D02*
D03*
X008750Y006800D02*
D03*
Y006200D02*
D03*
X008300Y006500D02*
D03*
Y005950D02*
D03*
X006924Y006697D02*
D03*
X010450Y010050D02*
D03*
X011280Y009400D02*
D03*
X011537Y011887D02*
D03*
D58*
X008116Y005452D02*
D03*
Y007248D02*
D03*
D59*
X010576Y006350D02*
D03*
D60*
X003750Y021113D02*
D03*
X003376Y020087D02*
D03*
X004124D02*
D03*
X005200Y021113D02*
D03*
X004826Y020087D02*
D03*
X005574D02*
D03*
X006650Y021113D02*
D03*
X006276Y020087D02*
D03*
X007024D02*
D03*
D61*
X003837Y005404D02*
D03*
Y004696D02*
D03*
X001987Y005504D02*
D03*
Y004796D02*
D03*
D62*
X004450Y015635D02*
D03*
Y015065D02*
D03*
D63*
X011700Y003950D02*
X013634D01*
X010811Y006115D02*
X013634D01*
D64*
X004550Y015625D02*
D03*
D65*
X004450Y015355D02*
D03*
D66*
X008325Y002975D02*
D03*
X008375Y004225D02*
D03*
D67*
X008975Y003575D02*
D03*
X007725D02*
D03*
D68*
X006706Y007053D02*
D03*
D69*
X008100Y007525D02*
D03*
D70*
X004400Y014875D02*
D03*
D71*
X003300Y009050D02*
D03*
D72*
X015575Y031800D02*
D03*
D73*
X007900Y006500D02*
D03*
M02*
