M48
;Layer_Color=9474304
;FILE_FORMAT=2:4
INCH
;TYPE=PLATED
T1F00S00C0.0197
T2F00S00C0.0236
T3F00S00C0.0256
T4F00S00C0.0315
T5F00S00C0.0354
T6F00S00C0.0709
T7F00S00C0.1260
;TYPE=NON_PLATED
T8F00S00C0.0197
T9F00S00C0.1575
%
T01
X001748Y001761
Y003730
X009622
X010150Y004550
X010400Y005550
X011200Y005500
X012250Y004800
Y004217
Y003633
Y003050
X011591Y001761
X009622
X007654
X015528
X017100Y005250
X016650Y007350
X016350Y008400
X015800Y007900
X015550Y011200
X014800Y011450
Y012050
Y012650
X013850
Y012050
Y011450
X011537Y011887
X011591Y013572
X012337Y013413
X012774Y015750
X013600Y016600
X014863Y016037
X015337Y016337
X015837Y016037
X017700Y017050
X017496Y017509
X017700Y018950
X017496Y019478
X016600Y020850
X014950Y020550
X012750
Y019650
X013450
X012343Y018450
X011993Y017907
X014676Y018076
X011013Y015113
X009450
X007250Y016550
X007654Y017509
X008200Y020300
X007850Y020700
X008850Y020200
X005685Y013572
Y009635
X005600Y007700
X006924Y006697
X008300Y006500
Y005950
X008750Y006200
Y006800
X010400Y007200
X011200
Y006350
X010400Y006375
X010100Y007850
X010450Y010050
X011280Y009400
X012300Y008450
X017450Y012950
X004150Y013950
X002150Y013900
X001750Y012400
X001100Y012350
Y012900
X003200Y012500
X003717Y011604
X003767Y010600
X004650
Y009617
X003767
X002883
X002000
Y008633
X002883
X003767
X004650
Y007650
X003767
X002883
X002000
Y010600
X002883Y010600
X002650Y017300
X002350Y017924
X001748Y017509
X001650Y019800
X003050Y018700
X004159Y017291
X002150Y021250
Y021750
X001650Y023650
X009150Y024350
X008800Y021400
X011591Y021446
X012450Y021750
X012600Y021200
X015474Y022376
T02
X007539Y028496
X008539
X009539
X010539
X011539
X012539
Y034496
X011539
X010539
X009539
X008539
X007539
T03
X011737Y024750
Y025250
X012237
Y024750
X012737
Y025250
T04
X009053Y002042
X010037Y001058
X011022Y002042
T05
X018050Y007900
X004756Y022100
X003756
X002756
Y023100
X003756
X004756
Y030996
X003756
X002756
Y031996
X003756
X004756
X005756
Y030996
X006756
Y031996
X007756
Y030996
Y023100
X006756
X005756
Y022100
X006756
X007756
X018400Y024900
T06
X002984Y003950
X004637
X006291
X013634
X015287
X016941
Y006115
X015287
X013634
X006291
X004637
X002984
T07
X002984Y001076
X006291
X013634
X016941
T08
X005118Y026673
X005512
X005522Y027657
X005129
X005916
X006310
X006704
X006693Y026673
X006299
X005906
X013386
X013780
X014173
X014567
X014961
X014971Y027657
X014578
X014184
X013790
X013396
T09
X015748Y031496
M30
